<?xml version="1.0" encoding="iso-8859-1"?>
<!-- Generator: Adobe Illustrator 24.1.1, SVG Export Plug-In . SVG Version: 6.00 Build 0)  -->
<svg version="1.1" id="Capa_1" xmlns="http://www.w3.org/2000/svg" xmlns:xlink="http://www.w3.org/1999/xlink" x="0px" y="0px"
	 viewBox="0 0 497 497" style="enable-background:new 0 0 497 497;" xml:space="preserve">
<g>
	<path style="fill:#504B83;" d="M467,0l-60,437l90-179.136V7.5c0-4.142-3.358-7.5-7.5-7.5H467z"/>
	<path style="fill:#4663A2;" d="M0,7.5v250.425L20,437h447V0H7.5C3.358,0,0,3.358,0,7.5z"/>
	<circle style="fill:#FFFFFF;" cx="90" cy="180" r="7.5"/>
	<circle style="fill:#FFFFFF;" cx="60" cy="150" r="7.5"/>
	<circle style="fill:#FFFFFF;" cx="407" cy="180" r="7.5"/>
	<circle style="fill:#FFFFFF;" cx="437" cy="150" r="7.5"/>
	<circle style="fill:#FFFFFF;" cx="338.5" cy="150" r="7.5"/>
	<circle style="fill:#FFFFFF;" cx="60" cy="30" r="7.5"/>
	<circle style="fill:#FFFFFF;" cx="437" cy="30" r="7.5"/>
	<path style="fill:#FFFACC;" d="M248.5,30v120c33.137,0,60-26.863,60-60S281.637,30,248.5,30z"/>
	<path style="fill:#FFFFFF;" d="M278.5,90c0-33.137-13.431-60-30-60c-10.933,0-21.173,2.938-30,8.047v103.906
		c8.827,5.108,19.067,8.047,30,8.047C265.069,150,278.5,123.137,278.5,90z"/>
	<ellipse style="fill:#504B83;" cx="218.5" cy="90" rx="30" ry="51.953"/>
	<path style="fill:#26ABFF;" d="M490.761,250.535c-7.112-1.288-13.594-4.385-18.955-8.795c-1.405-1.156-3.106-1.737-4.806-1.74
		l-30,80l30,10l30-12.136v-60C497,254.222,494.346,251.184,490.761,250.535z"/>
	<path style="fill:#30CAF3;" d="M462.218,241.722c-7.188,5.922-16.392,9.481-26.432,9.481c-10.008,0-19.187-3.537-26.364-9.426
		c-2.838-2.328-6.863-2.328-9.701,0c-7.177,5.888-16.355,9.425-26.364,9.425c-10.008,0-19.186-3.537-26.363-9.425
		c-2.838-2.329-6.863-2.329-9.701,0c-7.177,5.888-16.355,9.426-26.364,9.426s-19.187-3.537-26.364-9.426
		c-2.838-2.328-6.863-2.328-9.701,0c-7.177,5.888-16.355,9.426-26.364,9.426s-19.187-3.537-26.364-9.426
		c-2.838-2.328-6.863-2.328-9.701,0c-7.177,5.888-16.355,9.426-26.364,9.426s-19.186-3.537-26.364-9.426
		c-2.838-2.328-6.863-2.328-9.701,0c-7.177,5.888-16.355,9.425-26.363,9.425c-10.008,0-19.187-3.537-26.364-9.426
		c-2.838-2.328-6.863-2.328-9.701,0c-7.177,5.888-16.355,9.426-26.364,9.426c-10.04,0-19.244-3.56-26.432-9.481
		c-2.802-2.309-6.785-2.288-9.589,0.019c-5.395,4.438-11.924,7.546-19.089,8.819C2.557,251.191,0,254.322,0,257.925v59.939L40.5,330
		H467v-89.999C465.308,239.999,463.616,240.569,462.218,241.722z"/>
	<path style="fill:#3193E0;" d="M490.761,310.535c-7.112-1.288-13.594-4.385-18.955-8.795c-1.405-1.156-3.106-1.737-4.806-1.74
		l-30,80l30,117h22.5c4.142,0,7.5-3.358,7.5-7.5V317.864C497,314.222,494.346,311.184,490.761,310.535z"/>
	<path style="fill:#26ABFF;" d="M462.218,301.722c-7.188,5.922-16.392,9.481-26.432,9.481c-10.008,0-19.186-3.537-26.364-9.425
		c-2.838-2.328-6.863-2.328-9.701,0c-7.177,5.888-16.355,9.425-26.364,9.425c-10.008,0-19.186-3.537-26.363-9.425
		c-2.838-2.328-6.863-2.328-9.701,0c-7.177,5.888-16.355,9.425-26.364,9.425c-10.008,0-19.187-3.537-26.364-9.426
		c-2.838-2.328-6.863-2.328-9.701,0c-7.177,5.888-16.355,9.426-26.364,9.426c-10.008,0-19.187-3.537-26.364-9.426
		c-2.838-2.328-6.863-2.328-9.701,0c-7.177,5.888-16.355,9.426-26.364,9.426c-10.008,0-19.186-3.537-26.364-9.425
		c-2.838-2.328-6.863-2.328-9.701,0c-7.177,5.888-16.355,9.425-26.363,9.425c-10.008,0-19.187-3.537-26.364-9.426
		c-2.838-2.328-6.863-2.328-9.701,0c-7.177,5.888-16.355,9.426-26.364,9.426c-10.04,0-19.244-3.56-26.432-9.481
		c-2.803-2.309-6.785-2.288-9.589,0.019c-5.395,4.439-11.924,7.546-19.089,8.819C2.557,311.191,0,314.322,0,317.925L0,489.5
		c0,4.142,3.358,7.5,7.5,7.5H467V300.001C465.308,299.999,463.616,300.569,462.218,301.722z"/>
</g>
<g>
</g>
<g>
</g>
<g>
</g>
<g>
</g>
<g>
</g>
<g>
</g>
<g>
</g>
<g>
</g>
<g>
</g>
<g>
</g>
<g>
</g>
<g>
</g>
<g>
</g>
<g>
</g>
<g>
</g>
</svg>
