<?xml version="1.0" encoding="iso-8859-1"?>
<!-- Generator: Adobe Illustrator 24.1.1, SVG Export Plug-In . SVG Version: 6.00 Build 0)  -->
<svg version="1.1" id="Capa_1" xmlns="http://www.w3.org/2000/svg" xmlns:xlink="http://www.w3.org/1999/xlink" x="0px" y="0px"
	 viewBox="0 0 497 497" style="enable-background:new 0 0 497 497;" xml:space="preserve">
<g>
	<path style="fill:#5B9B40;" d="M489.391,77.051c-7.638,0.103-15.097,0.36-22.391,0.754L437,347l60-90V84.556
		C497,80.374,493.573,76.995,489.391,77.051z"/>
	<path style="fill:#70AE3E;" d="M193.33,185.87c-1.623,1.175-3.231,2.34-4.829,3.496V347H467V77.806
		C332.511,85.075,255.792,140.628,193.33,185.87z"/>
	<path style="fill:#37774B;" d="M497,257c-10.65,0-20.618-0.376-30.013-1.098L436.985,347L497,287V257z"/>
	<path style="fill:#468943;" d="M303.671,185.87C237.819,138.173,156.132,79.006,7.598,77.05C3.42,76.995,0,80.375,0,84.554V287
		l30,60h436.985l0.002-91.099C392.439,250.175,354.304,222.543,303.671,185.87z"/>
	<path style="fill:#FFA630;" d="M248.5,0v90c24.853,0,45-20.147,45-45S273.353,0,248.5,0z"/>
	<path style="fill:#FFC938;" d="M263.5,45c0-24.853-6.716-45-15-45c-24.853,0-45,20.147-45,45s20.147,45,45,45
		C256.784,90,263.5,69.853,263.5,45z"/>
	<polygon style="fill:#5B9B40;" points="467,287 437,362 497,332 497,287 	"/>
	<polygon style="fill:#70AE3E;" points="0,287 0,392 30,422 467,422 467,287 	"/>
	<path style="fill:#70AE3E;" d="M437,414.5l30,82.5h22.5c4.142,0,7.5-3.358,7.5-7.5V332h-30L437,414.5z"/>
	<path style="fill:#9DCB3B;" d="M102.174,332c-8.077,0-15.027,6.207-15.406,14.275C86.362,354.889,93.225,362,101.75,362
		s15.388,7.111,14.983,15.725c-0.38,8.068-7.33,14.275-15.406,14.275H0v97.5c0,4.142,3.358,7.5,7.5,7.5H467V332H102.174z"/>
	<path style="fill:#37774B;" d="M90,249.5c-4.143,0-7.5-3.357-7.5-7.5v-15c0-4.143,3.357-7.5,7.5-7.5s7.5,3.357,7.5,7.5v15
		C97.5,246.143,94.143,249.5,90,249.5z"/>
	<path style="fill:#37774B;" d="M248.5,264.5c-4.143,0-7.5-3.357-7.5-7.5v-15c0-4.143,3.357-7.5,7.5-7.5s7.5,3.357,7.5,7.5v15
		C256,261.143,252.643,264.5,248.5,264.5z"/>
	<path style="fill:#468943;" d="M467,234.5c-4.143,0-7.5-3.357-7.5-7.5v-15c0-4.143,3.357-7.5,7.5-7.5s7.5,3.357,7.5,7.5v15
		C474.5,231.143,471.143,234.5,467,234.5z"/>
	<path style="fill:#5B9B40;" d="M437,219.5c-4.143,0-7.5-3.357-7.5-7.5v-15c0-4.143,3.357-7.5,7.5-7.5s7.5,3.357,7.5,7.5v15
		C444.5,216.143,441.143,219.5,437,219.5z"/>
	<path style="fill:#37774B;" d="M60,264.5c-4.143,0-7.5-3.357-7.5-7.5v-15c0-4.143,3.357-7.5,7.5-7.5s7.5,3.357,7.5,7.5v15
		C67.5,261.143,64.143,264.5,60,264.5z"/>
	<path style="fill:#37774B;" d="M30,249.5c-4.143,0-7.5-3.357-7.5-7.5v-15c0-4.143,3.357-7.5,7.5-7.5s7.5,3.357,7.5,7.5v15
		C37.5,246.143,34.143,249.5,30,249.5z"/>
	<path style="fill:#9DCB3B;" d="M30,399.5c-4.143,0-7.5-3.357-7.5-7.5v-15c0-4.143,3.357-7.5,7.5-7.5s7.5,3.357,7.5,7.5v15
		C37.5,396.143,34.143,399.5,30,399.5z"/>
	<path style="fill:#9DCB3B;" d="M60,399.5c-4.143,0-7.5-3.357-7.5-7.5v-15c0-4.143,3.357-7.5,7.5-7.5s7.5,3.357,7.5,7.5v15
		C67.5,396.143,64.143,399.5,60,399.5z"/>
	<path style="fill:#70AE3E;" d="M158.5,414.5c-4.143,0-7.5-3.357-7.5-7.5v-15c0-4.143,3.357-7.5,7.5-7.5s7.5,3.357,7.5,7.5v15
		C166,411.143,162.643,414.5,158.5,414.5z"/>
	<path style="fill:#70AE3E;" d="M188.5,399.5c-4.143,0-7.5-3.357-7.5-7.5v-15c0-4.143,3.357-7.5,7.5-7.5s7.5,3.357,7.5,7.5v15
		C196,396.143,192.643,399.5,188.5,399.5z"/>
	<path style="fill:#5B9B40;" d="M467,459.5c-4.143,0-7.5-3.357-7.5-7.5v-15c0-4.143,3.357-7.5,7.5-7.5s7.5,3.357,7.5,7.5v15
		C474.5,456.143,471.143,459.5,467,459.5z"/>
	<path style="fill:#70AE3E;" d="M437,474.5c-4.143,0-7.5-3.357-7.5-7.5v-15c0-4.143,3.357-7.5,7.5-7.5s7.5,3.357,7.5,7.5v15
		C444.5,471.143,441.143,474.5,437,474.5z"/>
	<path style="fill:#5B9B40;" d="M467,384.5c-4.143,0-7.5-3.357-7.5-7.5v-15c0-4.143,3.357-7.5,7.5-7.5s7.5,3.357,7.5,7.5v15
		C474.5,381.143,471.143,384.5,467,384.5z"/>
	<path style="fill:#70AE3E;" d="M407,459.5c-4.143,0-7.5-3.357-7.5-7.5v-15c0-4.143,3.357-7.5,7.5-7.5s7.5,3.357,7.5,7.5v15
		C414.5,456.143,411.143,459.5,407,459.5z"/>
	<path style="fill:#9DCB3B;" d="M365.25,339.5c-4.143,0-7.5-3.357-7.5-7.5v-15c0-4.143,3.357-7.5,7.5-7.5s7.5,3.357,7.5,7.5v15
		C372.75,336.143,369.393,339.5,365.25,339.5z"/>
	<path style="fill:#9DCB3B;" d="M218.5,339.5c-4.143,0-7.5-3.357-7.5-7.5v-15c0-4.143,3.357-7.5,7.5-7.5s7.5,3.357,7.5,7.5v15
		C226,336.143,222.643,339.5,218.5,339.5z"/>
	<path style="fill:#9DCB3B;" d="M248.5,339.5c-4.143,0-7.5-3.357-7.5-7.5v-15c0-4.143,3.357-7.5,7.5-7.5s7.5,3.357,7.5,7.5v15
		C256,336.143,252.643,339.5,248.5,339.5z"/>
	<path style="fill:#9DCB3B;" d="M188.5,339.5c-4.143,0-7.5-3.357-7.5-7.5v-15c0-4.143,3.357-7.5,7.5-7.5s7.5,3.357,7.5,7.5v15
		C196,336.143,192.643,339.5,188.5,339.5z"/>
	<path style="fill:#70AE3E;" d="M30,459.5c-4.143,0-7.5-3.357-7.5-7.5v-15c0-4.143,3.357-7.5,7.5-7.5s7.5,3.357,7.5,7.5v15
		C37.5,456.143,34.143,459.5,30,459.5z"/>
	<path style="fill:#70AE3E;" d="M60,474.5c-4.143,0-7.5-3.357-7.5-7.5v-15c0-4.143,3.357-7.5,7.5-7.5s7.5,3.357,7.5,7.5v15
		C67.5,471.143,64.143,474.5,60,474.5z"/>
</g>
<g>
</g>
<g>
</g>
<g>
</g>
<g>
</g>
<g>
</g>
<g>
</g>
<g>
</g>
<g>
</g>
<g>
</g>
<g>
</g>
<g>
</g>
<g>
</g>
<g>
</g>
<g>
</g>
<g>
</g>
</svg>
