<?xml version="1.0" encoding="iso-8859-1"?>
<!-- Generator: Adobe Illustrator 24.1.1, SVG Export Plug-In . SVG Version: 6.00 Build 0)  -->
<svg version="1.1" id="Capa_1" xmlns="http://www.w3.org/2000/svg" xmlns:xlink="http://www.w3.org/1999/xlink" x="0px" y="0px"
	 viewBox="0 0 497 497" style="enable-background:new 0 0 497 497;" xml:space="preserve">
<g>
	<polygon style="fill:#A94525;" points="437,110.001 467,277.001 497,197.001 497,140.001 	"/>
	<rect x="323.5" y="110.001" style="fill:#FF3C19;" width="143.5" height="167"/>
	<path style="fill:#302C4C;" d="M479.221,93.612L422,65.001l45,75h30l-14.018-42.053C482.353,96.061,481,94.501,479.221,93.612z"/>
	<polygon style="fill:#5B3364;" points="422,65.001 323.5,65.001 295,140.001 467,140.001 452,95.001 	"/>
	<path style="fill:#FF5F21;" d="M383.5,95.001l-60-30l-57.221,28.611c-1.779,0.89-3.132,2.449-3.761,4.336L248.5,140.001v137h150
		v-137L383.5,95.001z"/>
	<rect x="301" y="140.001" style="fill:#FFFACC;" width="45" height="107"/>
	<circle style="fill:#FFFFFF;" cx="323.5" cy="110.001" r="7.5"/>
	<path style="fill:#FFA630;" d="M124.25,0.001v90c24.853,0,45-20.147,45-45S149.103,0.001,124.25,0.001z"/>
	<path style="fill:#FFC938;" d="M139.25,45.001c0-24.853-6.716-45-15-45c-24.853,0-45,20.147-45,45s20.147,45,45,45
		C132.534,90.001,139.25,69.854,139.25,45.001z"/>
	<path style="fill:#5B9B40;" d="M303.652,269.58c-65.851-31.799-147.536-71.246-296.071-72.547C3.41,196.997,0,200.366,0,204.537
		v22.464l308.5,78.562V271.92C306.895,271.146,305.281,270.366,303.652,269.58z"/>
	<path style="fill:#468943;" d="M289.121,296.276c-32.225-15.562-68.749-33.199-114.784-46.589
		C121.85,234.422,64.824,227.001,0,227.001v30l308.5,81.619v-33.057C302.131,302.558,295.704,299.455,289.121,296.276z"/>
	<path style="fill:#5B9B40;" d="M276.075,323.291C211.731,292.219,138.801,257.001,0,257.001v30l308.5,51.619
		C297.693,333.728,287.021,328.576,276.075,323.291z"/>
	<path style="fill:#468943;" d="M0,317l225.973,15.836C171.17,308.206,107.096,287.001,0,287.001V317z"/>
	<path style="fill:#5B9B40;" d="M497,197c-10.315,0-20.302,0.188-30,0.537l-30,38.188l60-8.725V197z"/>
	<path style="fill:#70AE3E;" d="M193.348,269.58C136.337,297.11,95.148,317,0,317v30l50,10l417-121.274v-38.188
		C332.521,202.384,255.807,239.419,193.348,269.58z"/>
	<path style="fill:#5B9B40;" d="M497,377c-10.516,0-20.494,0.231-30,0.67l-30,38.342L497,407V377z"/>
	<polygon style="fill:#70AE3E;" points="7.5,377.67 7.5,496.999 197.413,496.999 467,416.012 467,377.67 	"/>
	<path style="fill:#70AE3E;" d="M497,407c-10.575,0-20.544,0.24-30,0.696l-30,37.497L497,437V407z"/>
	<path style="fill:#9DCB3B;" d="M289.121,457.725c-26.642,12.866-56.242,27.144-91.708,39.274h79.878L467,445.193v-37.497
		C384.511,411.671,341.777,432.298,289.121,457.725z"/>
	<path style="fill:#5B9B40;" d="M497,437c-10.644,0-20.609,0.251-30,0.731l-30,35.278L497,467V437z"/>
	<path style="fill:#70AE3E;" d="M303.652,484.42c-8.488,4.099-17.238,8.324-26.361,12.579h69.943L467,473.009v-35.278
		C392.443,441.548,354.285,459.97,303.652,484.42z"/>
	<path style="fill:#70AE3E;" d="M497,467c-10.725,0-20.674,0.266-30,0.772l-20,14.614l20,14.614h22.5c4.142,0,7.5-3.358,7.5-7.5V467
		z"/>
	<path style="fill:#9DCB3B;" d="M347.233,496.999H467v-29.227C414.398,470.628,382.026,481.29,347.233,496.999z"/>
	<path style="fill:#70AE3E;" d="M497,347l-60-10l30,40.67c9.506-0.439,19.484-0.67,30-0.67V347z"/>
	<path style="fill:#9DCB3B;" d="M20,407L0,467v22.499c0,4.142,3.358,7.5,7.5,7.5c133.943-1.282,205.401-35.782,268.575-66.289
		c53.961-26.057,101.272-48.899,190.925-53.04V337L20,407z"/>
	<path style="fill:#70AE3E;" d="M497,227.001c-10.196,0-20.177,0.206-30,0.574l-30,38.15l60-8.725V227.001z"/>
	<path style="fill:#9DCB3B;" d="M322.663,249.688c-46.036,13.39-82.56,31.027-114.784,46.589C149.189,324.616,102.834,347,0,347v30
		l50,20l417-131.275v-38.15C414.371,229.551,366.895,236.823,322.663,249.688z"/>
	<path style="fill:#5B9B40;" d="M497,257.001c-10.362,0-20.349,0.2-30,0.576l-30,38.776l60-9.353V257.001z"/>
	<path style="fill:#70AE3E;" d="M220.925,323.291C161.242,352.11,109.699,377,0,377v30l80,10l387-120.646v-38.776
		C347.366,262.24,280.465,294.538,220.925,323.291z"/>
	<path style="fill:#70AE3E;" d="M497,287.001c-10.396,0-20.384,0.201-30,0.584l-30,38.734L497,317V287.001z"/>
	<path style="fill:#9DCB3B;" d="M233.967,350.308C173.59,379.462,116.562,407,0,407v30l78.5,10L467,326.319v-38.734
		C354.575,292.067,293.341,321.636,233.967,350.308z"/>
	<path style="fill:#5B9B40;" d="M497,317c-10.429,0-20.41,0.216-30,0.621l-20,15.015l20,15.015c9.553-0.425,19.533-0.651,30-0.651
		V317z"/>
	<path style="fill:#70AE3E;" d="M0,437v30c131.938,0,198.581-32.183,263.035-63.308c54.955-26.536,107.142-51.73,203.965-56.042
		v-30.029C248.072,326.866,238.071,437,0,437z"/>
</g>
<g>
</g>
<g>
</g>
<g>
</g>
<g>
</g>
<g>
</g>
<g>
</g>
<g>
</g>
<g>
</g>
<g>
</g>
<g>
</g>
<g>
</g>
<g>
</g>
<g>
</g>
<g>
</g>
<g>
</g>
</svg>
