<?xml version="1.0" encoding="iso-8859-1"?>
<!-- Generator: Adobe Illustrator 24.1.1, SVG Export Plug-In . SVG Version: 6.00 Build 0)  -->
<svg version="1.1" id="Capa_1" xmlns="http://www.w3.org/2000/svg" xmlns:xlink="http://www.w3.org/1999/xlink" x="0px" y="0px"
	 viewBox="0 0 497 497" style="enable-background:new 0 0 497 497;" xml:space="preserve">
<g>
	<path style="fill:#504B83;" d="M467,0L248.5,248.5L467,497h22.5c4.142,0,7.5-3.358,7.5-7.5V7.5c0-4.142-3.358-7.5-7.5-7.5H467z"/>
	<path style="fill:#4663A2;" d="M0,7.5v482c0,4.142,3.358,7.5,7.5,7.5H467V0H7.5C3.358,0,0,3.358,0,7.5z"/>
	<path style="fill:#BDF7F7;" d="M98.5,0v68.5l78.104-30C158.597,15.092,130.316,0,98.5,0z"/>
	<path style="fill:#FFFFFF;" d="M98.5,0C66.682,0,38.394,15.091,20.386,38.5l78.114,30l54.323-30C140.3,15.091,120.627,0,98.5,0z"/>
	<path style="fill:#3193E0;" d="M152.823,38.5l-15.949,95.902L192.341,68.5c-3.501-10.961-8.877-21.081-15.738-30H152.823z"/>
	<path style="fill:#26ABFF;" d="M20.386,38.5C7.605,55.115,0,75.918,0,98.5c0,10.462,1.637,20.54,4.659,30l123.841,30l38.374-54.098
		c0.08-1.953,0.126-3.92,0.126-5.902c0-22.582-5.289-43.385-14.177-60H20.386z"/>
	<path style="fill:#BDF7F7;" d="M192.341,68.5H163.76L98.5,197c54.4,0,98.5-44.1,98.5-98.5C197,88.038,195.363,77.96,192.341,68.5z"
		/>
	<path style="fill:#FFFFFF;" d="M167,98.5c0-10.462-1.138-20.54-3.24-30H98.5c-8.284,0-15,6.716-15,15c0,8.284,6.716,15,15,15
		s15,6.716,15,15c0,8.284-6.716,15-15,15H4.659C17.349,168.229,54.562,197,98.5,197C136.331,197,167,152.9,167,98.5z"/>
	<path style="fill:#FFDBAE;" d="M293.5,497l113.322-49.405l8.939,8.591C381.722,481.808,339.387,497,293.5,497z"/>
	<path style="fill:#FFFACC;" d="M104.348,368.687l189.152-30l113.322,108.908C376.421,478.38,336.815,497,293.5,497
		C207.669,497,134.255,443.86,104.348,368.687z"/>
	<path style="fill:#FF3C19;" d="M467.847,188.5l-19.404,13.356L293.5,90C367.473,90,432.222,129.473,467.847,188.5z"/>
	<path style="fill:#FF5F21;" d="M448.443,201.856L293.5,308.5l-202.934-30c0.75-10.257,2.244-20.307,4.456-30.087L248.413,95.022
		C262.917,91.741,278.005,90,293.5,90C361.214,90,419.859,135.503,448.443,201.856z"/>
	<path style="fill:#FF8229;" d="M399.717,454.406c-65.995-8.437-108.135-28.52-146.352-46.753
		c-41.449-19.774-77.583-37.008-149.017-38.966c-7.496-18.842-12.26-39.067-13.801-60.187c0.005,0,202.953-30,202.953-30
		l154.938,106.654C436.748,412.29,420.029,435.933,399.717,454.406z"/>
	<path style="fill:#FF8229;" d="M415.761,456.186c-5.509-0.514-10.842-1.115-16.044-1.78l48.722-69.251l19.388,13.346
		C454.3,420.906,436.593,440.505,415.761,456.186z"/>
	<path style="fill:#A94525;" d="M482.713,368.5c-4.15,10.452-9.14,20.48-14.887,30c-8.867,0-17.317-0.2-25.389-0.579l0-208.842
		c8.079-0.38,16.536-0.579,25.41-0.579c5.746,9.519,10.732,19.547,14.88,30L482.713,368.5z"/>
	<path style="fill:#FF3C19;" d="M442.437,397.921C278.783,390.231,270.325,308.5,90.552,308.5c-0.366-4.953-0.552-9.955-0.552-15
		c0-5.047,0.203-10.046,0.566-15c179.759-0.004,188.221-81.731,351.871-89.421C458.029,219.608,467,255.324,467,293.5
		C467,331.677,458.029,367.392,442.437,397.921z"/>
	<path style="fill:#FF5F21;" d="M482.713,368.5H482c-9.026,0-17.679-1.597-25.694-4.519V223.019
		c8.015-2.923,16.668-4.519,25.694-4.519h0.727c9.209,23.209,14.273,48.512,14.273,75C497,319.991,491.928,345.293,482.713,368.5z"
		/>
	<path style="fill:#FF8229;" d="M456.307,363.981C427.54,353.492,407,325.896,407,293.5s20.54-59.991,49.306-70.481
		C463.22,244.981,467,268.722,467,293.5C467,318.278,463.22,342.02,456.307,363.981z"/>
	<path style="fill:#FFA630;" d="M95.022,248.413c17.234-76.187,77.204-136.157,153.391-153.391
		C245.812,178.566,178.566,245.812,95.022,248.413z"/>
	<circle style="fill:#FFFFFF;" cx="61" cy="293.5" r="8.5"/>
	<circle style="fill:#FFFFFF;" cx="31" cy="323.5" r="8.5"/>
	<circle style="fill:#FFFFFF;" cx="293.5" cy="61" r="8.5"/>
	<circle style="fill:#FFFFFF;" cx="323.5" cy="31" r="8.5"/>
	<circle style="fill:#FFFFFF;" cx="466" cy="91" r="8.5"/>
	<circle style="fill:#FFFFFF;" cx="466" cy="466" r="8.5"/>
	<circle style="fill:#FFFFFF;" cx="105" cy="466" r="8.5"/>
</g>
<g>
</g>
<g>
</g>
<g>
</g>
<g>
</g>
<g>
</g>
<g>
</g>
<g>
</g>
<g>
</g>
<g>
</g>
<g>
</g>
<g>
</g>
<g>
</g>
<g>
</g>
<g>
</g>
<g>
</g>
</svg>
