<?xml version="1.0" encoding="iso-8859-1"?>
<!-- Generator: Adobe Illustrator 24.1.1, SVG Export Plug-In . SVG Version: 6.00 Build 0)  -->
<svg version="1.1" id="Capa_1" xmlns="http://www.w3.org/2000/svg" xmlns:xlink="http://www.w3.org/1999/xlink" x="0px" y="0px"
	 viewBox="0 0 497 497" style="enable-background:new 0 0 497 497;" xml:space="preserve">
<g>
	<path style="fill:#FF8229;" d="M467,90l-50,30v200l80-20V97.5c0-4.142-3.358-7.5-7.5-7.5H467z"/>
	<polygon style="fill:#FFA630;" points="467,90 287,90 287,320 467,320 467,270 457,240 467,210 467,180 457,150 467,120 	"/>
	<polygon style="fill:#4663A2;" points="437,310 437,422 497,407 497,330 	"/>
	<polygon style="fill:#3B7BC1;" points="407,310 377,422 347,422 327,310 	"/>
	<rect x="402" y="310" style="fill:#3AE8E6;" width="65" height="112"/>
	<rect x="377" y="310" style="fill:#7CF0EE;" width="45" height="112"/>
	<polygon style="fill:#FFFACC;" points="467,300 447,315 467,330 497,330 497,300 	"/>
	<rect x="317" y="300" style="fill:#FFFFFF;" width="150" height="30"/>
	<rect x="437" y="210" style="fill:#FFFFFF;" width="30" height="60"/>
	<rect x="377" y="210" style="fill:#FFFFFF;" width="30" height="60"/>
	<rect x="437" y="120" style="fill:#FFFFFF;" width="30" height="60"/>
	<rect x="377" y="120" style="fill:#FFFFFF;" width="30" height="60"/>
	<polygon style="fill:#FFC938;" points="120,90 60,120 60,350 197.531,350 197.531,90 	"/>
	<path style="fill:#FFF066;" d="M120,90H7.5C3.358,90,0,93.358,0,97.5V330l120,20v-80l-10-30l10-30v-30l-10-30l10-30V90z"/>
	<polygon style="fill:#3B7BC1;" points="60,310 30,422 0,407 0,330 	"/>
	<polygon style="fill:#4663A2;" points="90,310 120,422 150,422 170,310 	"/>
	<rect x="30" y="310" style="fill:#7CF0EE;" width="65" height="112"/>
	<rect x="75" y="310" style="fill:#3AE8E6;" width="45" height="112"/>
	<polygon style="fill:#FFF066;" points="120,300 100,315 120,330 180,330 180,300 	"/>
	<rect x="0" y="300" style="fill:#FFFACC;" width="120" height="30"/>
	<rect x="90" y="210" style="fill:#FFFFFF;" width="30" height="60"/>
	<rect x="30" y="210" style="fill:#FFFFFF;" width="30" height="60"/>
	<rect x="90" y="120" style="fill:#FFFFFF;" width="30" height="60"/>
	<rect x="30" y="120" style="fill:#FFFFFF;" width="30" height="60"/>
	<path style="fill:#FF3C19;" d="M257,156.5L317,422h30V7.5c0-4.142-3.358-7.5-7.5-7.5H317L257,156.5z"/>
	<path style="fill:#FF5F21;" d="M317,0H157.5c-4.142,0-7.5,3.358-7.5,7.5V422h167V270l-10-30l10-30v-30l-10-30l10-30V90l-10-30
		l10-30V0z"/>
	<rect x="287" y="210" style="fill:#FFFFFF;" width="30" height="60"/>
	<rect x="180" y="210" style="fill:#FFFFFF;" width="30" height="60"/>
	<rect x="287" y="30" style="fill:#FFFFFF;" width="30" height="60"/>
	<rect x="180" y="30" style="fill:#FFFFFF;" width="30" height="60"/>
	<rect x="287" y="120" style="fill:#FFFFFF;" width="30" height="60"/>
	<rect x="180" y="120" style="fill:#FFFFFF;" width="30" height="60"/>
	<polygon style="fill:#3AE8E6;" points="278.5,300 248.5,300 228.5,422 278.5,422 	"/>
	<rect x="218.5" y="300" style="fill:#7CF0EE;" width="30" height="122"/>
	<polygon style="fill:#7CF0EE;" points="497,407 467,407 437,467 497,437 	"/>
	<polygon style="fill:#BDF7F7;" points="0,407 0,437 30,467 467,467 467,407 	"/>
	<path style="fill:#504B83;" d="M467,437l-30,30l30,30h22.5c4.142,0,7.5-3.358,7.5-7.5V437H467z"/>
	<path style="fill:#4663A2;" d="M0,437v52.5c0,4.142,3.358,7.5,7.5,7.5H467v-60H0z"/>
	<path style="fill:#FFC938;" d="M248.5,157.5c-4.142,0-7.5-3.357-7.5-7.5v-15c0-4.143,3.358-7.5,7.5-7.5c4.143,0,7.5,3.357,7.5,7.5
		v15C256,154.143,252.643,157.5,248.5,157.5z"/>
	<path style="fill:#FFC938;" d="M248.5,67.5c-4.142,0-7.5-3.357-7.5-7.5V45c0-4.143,3.358-7.5,7.5-7.5c4.143,0,7.5,3.357,7.5,7.5v15
		C256,64.143,252.643,67.5,248.5,67.5z"/>
	<path style="fill:#FFC938;" d="M248.5,247.5c-4.142,0-7.5-3.357-7.5-7.5v-15c0-4.143,3.358-7.5,7.5-7.5c4.143,0,7.5,3.357,7.5,7.5
		v15C256,244.143,252.643,247.5,248.5,247.5z"/>
</g>
<g>
</g>
<g>
</g>
<g>
</g>
<g>
</g>
<g>
</g>
<g>
</g>
<g>
</g>
<g>
</g>
<g>
</g>
<g>
</g>
<g>
</g>
<g>
</g>
<g>
</g>
<g>
</g>
<g>
</g>
</svg>
