<?xml version="1.0" encoding="iso-8859-1"?>
<!-- Generator: Adobe Illustrator 24.1.1, SVG Export Plug-In . SVG Version: 6.00 Build 0)  -->
<svg version="1.1" id="Capa_1" xmlns="http://www.w3.org/2000/svg" xmlns:xlink="http://www.w3.org/1999/xlink" x="0px" y="0px"
	 viewBox="0 0 497 497" style="enable-background:new 0 0 497 497;" xml:space="preserve">
<g>
	<circle style="fill:#BDF7F7;" cx="248.5" cy="248.5" r="248.5"/>
	<path style="fill:#30CAF3;" d="M248.5,30v437C369.174,467,467,369.174,467,248.5S369.174,30,248.5,30z"/>
	<path style="fill:#3AE8E6;" d="M437,248.5C437,127.826,352.606,30,248.5,30C127.826,30,30,127.826,30,248.5S127.826,467,248.5,467
		C352.606,467,437,369.174,437,248.5z"/>
	<path style="fill:#3193E0;" d="M362.654,98.5c-20.632-15.726-44.604-27.291-70.665-33.45l-6.923,0l118.529,222.442L437,248.5
		L362.654,98.5z"/>
	<path style="fill:#26ABFF;" d="M285.067,65.051l-80.054,0.006c-33.763,7.978-64.021,25.026-88.051,48.443L66.62,198.857
		C62.313,214.675,60,231.316,60,248.5c0,19.759,3.047,38.804,8.684,56.7l2.558,3.3l23.26,30l23.26,30l190.738,30l95.096-111.007
		C405.822,274.91,407,261.87,407,248.5C407,159.363,354.974,84.685,285.067,65.051z"/>
	<path style="fill:#9DCB3B;" d="M173.5,278.5h-75c-15.453,0-28.172,11.685-29.816,26.7c0.348,1.105,0.713,2.203,1.081,3.3l13.089,30
		c5.808,10.666,12.614,20.707,20.296,30l45.586,39.949L173.5,338.5c16.569,0,30-13.431,30-30S190.069,278.5,173.5,278.5z"/>
	<path style="fill:#7CF0EE;" d="M248.5,60l42.922,7c0.202-0.644,0.393-1.293,0.567-1.95C278.029,61.751,263.469,60,248.5,60z"/>
	<path style="fill:#BDF7F7;" d="M205.013,65.057C210.114,84.308,227.644,98.5,248.5,98.5c20.147,0,37.189-13.245,42.922-31.5
		c-13.651-4.557-28.046-7-42.922-7C233.53,60,218.974,61.758,205.013,65.057z"/>
	<path style="fill:#70AE3E;" d="M421.461,173.5l-27.611-45c-9.216-11.148-19.682-21.224-31.195-30H353.5
		c-2.722,0-5.357,0.369-7.864,1.048L396.84,263.5l39.547-30C434.719,212.321,429.548,192.132,421.461,173.5z"/>
	<path style="fill:#9DCB3B;" d="M345.636,99.548c-12.753,3.456-22.136,15.105-22.136,28.952c-16.569,0-30,13.432-30,30l15,15
		c0,16.569,13.431,30,30,30h30v75l38.231-19.125c0.172-3.6,0.269-7.224,0.269-10.875C407,187.927,382.971,134.034,345.636,99.548z"
		/>
	<path style="fill:#9DCB3B;" d="M121,233.5h15c0,8.525,7.111,15.388,15.725,14.983c8.068-0.38,14.275-7.33,14.275-15.406V158.5
		c12.699,0,22.941-10.52,22.485-23.321c-0.434-12.192-10.825-21.679-23.025-21.679h-48.499
		c-23.729,23.124-41.38,52.447-50.342,85.357C76.177,219.317,96.927,233.5,121,233.5z"/>
	<path style="fill:#BDF7F7;" d="M393.874,128.5h-23.15l23.225,45h27.526C414.385,157.172,405.063,142.039,393.874,128.5z"/>
	<path style="fill:#FFFFFF;" d="M248.5,128.5c-8.284,0-15,6.716-15,15s6.716,15,15,15h15c0,8.284,6.716,15,15,15h115.449
		c-5.963-16.331-13.814-31.46-23.225-45H248.5z"/>
	<path style="fill:#BDF7F7;" d="M436.388,233.5H406.49L248.5,437C352.606,437,437,352.606,437,248.5
		C437,243.449,436.778,238.451,436.388,233.5z"/>
	<path style="fill:#FFFFFF;" d="M407,248.5c0-5.051-0.182-10.05-0.51-15H308.5c-8.284,0-15,6.716-15,15h-30c-8.284,0-15,6.716-15,15
		s6.716,15,15,15s15,6.716,15,15s-6.716,15-15,15H69.756c3.502,10.438,7.895,20.467,13.085,30H218.5c8.284,0,15,6.716,15,15
		s-6.716,15-15,15H103.131C137.704,410.337,189.987,437,248.5,437c85.953,0,155.919-81.369,158.424-182.87
		c0.002-0.073,0.005-0.145,0.007-0.217C406.973,252.115,407,250.311,407,248.5z"/>
</g>
<g>
</g>
<g>
</g>
<g>
</g>
<g>
</g>
<g>
</g>
<g>
</g>
<g>
</g>
<g>
</g>
<g>
</g>
<g>
</g>
<g>
</g>
<g>
</g>
<g>
</g>
<g>
</g>
<g>
</g>
</svg>
