<?xml version="1.0" encoding="iso-8859-1"?>
<!-- Generator: Adobe Illustrator 24.1.1, SVG Export Plug-In . SVG Version: 6.00 Build 0)  -->
<svg version="1.1" id="Capa_1" xmlns="http://www.w3.org/2000/svg" xmlns:xlink="http://www.w3.org/1999/xlink" x="0px" y="0px"
	 viewBox="0 0 497 497" style="enable-background:new 0 0 497 497;" xml:space="preserve">
<g>
	<circle style="fill:#BDF7F7;" cx="248.5" cy="248.5" r="248.5"/>
	<path style="fill:#30CAF3;" d="M248.5,30v437C369.174,467,467,369.174,467,248.5S369.174,30,248.5,30z"/>
	<path style="fill:#3AE8E6;" d="M437,248.5C437,127.826,352.606,30,248.5,30C127.826,30,30,127.826,30,248.5S127.826,467,248.5,467
		C352.606,467,437,369.174,437,248.5z"/>
	<path style="fill:#4663A2;" d="M248.5,60L90,248.5L248.5,437C352.606,437,437,352.606,437,248.5S352.606,60,248.5,60z"/>
	<circle style="fill:#FF5F21;" cx="248.5" cy="248.5" r="158.5"/>
	<circle style="fill:#FF3C19;" cx="248.5" cy="248.5" r="128.5"/>
	<path style="fill:#FFA630;" d="M248.5,188.5v120c33.137,0,60-26.863,60-60S281.637,188.5,248.5,188.5z"/>
	<path style="fill:#FFC938;" d="M278.5,248.5c0-33.137-13.431-60-30-60c-33.137,0-60,26.863-60,60s26.863,60,60,60
		C265.069,308.5,278.5,281.637,278.5,248.5z"/>
	<path style="fill:#26ABFF;" d="M205.013,65.057c-33.763,7.978-64.021,25.026-88.051,48.443L66.62,198.857
		C62.313,214.675,60,231.316,60,248.5c0,19.759,3.047,38.804,8.684,56.7L203.5,418.5l45-110v-210L205.013,65.057z"/>
	<path style="fill:#9DCB3B;" d="M173.5,278.5h-75c-15.453,0-28.172,11.685-29.816,26.7c0.348,1.105,0.713,2.203,1.081,3.3l13.089,30
		c5.808,10.666,12.614,20.707,20.296,30l45.586,39.949L173.5,338.5c16.569,0,30-13.431,30-30S190.069,278.5,173.5,278.5z"/>
	<path style="fill:#BDF7F7;" d="M205.013,65.057C210.114,84.308,227.644,98.5,248.5,98.5V60
		C233.53,60,218.974,61.758,205.013,65.057z"/>
	<path style="fill:#9DCB3B;" d="M121,233.5h15c0,8.525,7.111,15.388,15.725,14.983c8.068-0.38,14.275-7.33,14.275-15.406V158.5
		c12.699,0,22.941-10.52,22.485-23.321c-0.434-12.192-10.825-21.679-23.025-21.679h-48.499
		c-23.729,23.124-41.38,52.447-50.342,85.357C76.177,219.317,96.927,233.5,121,233.5z"/>
	<path style="fill:#FFFFFF;" d="M69.756,308.5c3.502,10.438,7.895,20.467,13.085,30H188.5c8.284,0,15,6.716,15,15s-6.716,15-15,15
		h-85.369C137.704,410.337,189.987,437,248.5,437V308.5H69.756z"/>
</g>
<g>
</g>
<g>
</g>
<g>
</g>
<g>
</g>
<g>
</g>
<g>
</g>
<g>
</g>
<g>
</g>
<g>
</g>
<g>
</g>
<g>
</g>
<g>
</g>
<g>
</g>
<g>
</g>
<g>
</g>
</svg>
