<?xml version="1.0" encoding="iso-8859-1"?>
<!-- Generator: Adobe Illustrator 24.1.1, SVG Export Plug-In . SVG Version: 6.00 Build 0)  -->
<svg version="1.1" id="Capa_1" xmlns="http://www.w3.org/2000/svg" xmlns:xlink="http://www.w3.org/1999/xlink" x="0px" y="0px"
	 viewBox="0 0 497 497" style="enable-background:new 0 0 497 497;" xml:space="preserve">
<g>
	<path style="fill:#30CAF3;" d="M490.761,357.535c-7.112-1.288-13.594-4.385-18.955-8.795c-1.405-1.156-3.106-1.737-4.806-1.74
		l-30,80l30,10l30-12.075v-60.061C497,361.222,494.346,358.184,490.761,357.535z"/>
	<path style="fill:#3AE8E6;" d="M462.218,348.722c-7.188,5.922-16.392,9.481-26.432,9.481c-10.008,0-19.187-3.537-26.364-9.426
		c-2.838-2.328-6.863-2.328-9.701,0c-7.177,5.888-16.355,9.425-26.364,9.425c-10.008,0-19.186-3.537-26.363-9.425
		c-2.838-2.329-6.863-2.329-9.701,0c-7.177,5.888-16.355,9.426-26.364,9.426s-19.187-3.537-26.364-9.426
		c-2.838-2.328-6.863-2.328-9.701,0c-7.177,5.888-16.355,9.426-26.364,9.426s-19.187-3.537-26.364-9.426
		c-2.838-2.328-6.863-2.328-9.701,0c-7.177,5.888-16.355,9.426-26.364,9.426s-19.186-3.537-26.364-9.426
		c-2.838-2.328-6.863-2.328-9.701,0c-7.177,5.888-16.355,9.425-26.363,9.425c-10.008,0-19.187-3.537-26.364-9.426
		c-2.838-2.328-6.863-2.328-9.701,0c-7.177,5.888-16.355,9.426-26.364,9.426c-10.04,0-19.244-3.56-26.432-9.481
		c-2.802-2.309-6.785-2.288-9.589,0.019c-5.395,4.438-11.924,7.546-19.089,8.819C2.557,358.191,0,361.322,0,364.925v60L467,437
		v-89.999C465.308,346.999,463.616,347.569,462.218,348.722z"/>
	<path style="fill:#26ABFF;" d="M490.761,417.535c-7.112-1.288-13.594-4.385-18.955-8.795c-1.405-1.156-3.106-1.737-4.806-1.74
		l-30,80l30,10h30v-72.136C497,421.222,494.346,418.184,490.761,417.535z"/>
	<path style="fill:#30CAF3;" d="M462.218,408.722c-7.188,5.922-16.392,9.481-26.432,9.481c-10.008,0-19.187-3.537-26.364-9.426
		c-2.838-2.328-6.863-2.328-9.701,0c-7.177,5.888-16.355,9.425-26.364,9.425c-10.008,0-19.186-3.537-26.363-9.425
		c-2.838-2.329-6.863-2.329-9.701,0c-7.177,5.888-16.355,9.426-26.364,9.426s-19.187-3.537-26.364-9.426
		c-2.838-2.328-6.863-2.328-9.701,0c-7.177,5.888-16.355,9.426-26.364,9.426s-19.187-3.537-26.364-9.426
		c-2.838-2.328-6.863-2.328-9.701,0c-7.177,5.888-16.355,9.426-26.364,9.426s-19.186-3.537-26.364-9.426
		c-2.838-2.328-6.863-2.328-9.701,0c-7.177,5.888-16.355,9.425-26.363,9.425c-10.008,0-19.187-3.537-26.364-9.426
		c-2.838-2.328-6.863-2.328-9.701,0c-7.177,5.888-16.355,9.426-26.364,9.426c-10.04,0-19.244-3.56-26.432-9.481
		c-2.802-2.309-6.785-2.288-9.589,0.019c-5.395,4.438-11.924,7.546-19.089,8.819C2.557,418.191,0,421.322,0,424.925V497h467v-89.999
		C465.308,406.999,463.616,407.569,462.218,408.722z"/>
	<path style="fill:#30CAF3;" d="M345.726,104.478L259.833,5.192L248.5,317c70.969,0,128.5-57.531,128.5-128.5
		C377,156.376,365.212,127.006,345.726,104.478z"/>
	<path style="fill:#3AE8E6;" d="M323.733,104.478L259.833,5.192C257.082,2.017,253.03,0,248.5,0s-8.582,2.017-11.332,5.192
		l-85.893,99.286C131.789,127.006,120,156.376,120,188.5c0,70.969,57.531,128.5,128.5,128.5c54.4,0,98.5-57.531,98.5-128.5
		C347.001,156.376,338.23,127.006,323.733,104.478z"/>
</g>
<g>
</g>
<g>
</g>
<g>
</g>
<g>
</g>
<g>
</g>
<g>
</g>
<g>
</g>
<g>
</g>
<g>
</g>
<g>
</g>
<g>
</g>
<g>
</g>
<g>
</g>
<g>
</g>
<g>
</g>
</svg>
