<?xml version="1.0" encoding="iso-8859-1"?>
<!-- Generator: Adobe Illustrator 24.1.1, SVG Export Plug-In . SVG Version: 6.00 Build 0)  -->
<svg version="1.1" id="Capa_1" xmlns="http://www.w3.org/2000/svg" xmlns:xlink="http://www.w3.org/1999/xlink" x="0px" y="0px"
	 viewBox="0 0 496.943 496.943" style="enable-background:new 0 0 496.943 496.943;" xml:space="preserve">
<g>
	<path style="fill:#A94525;" d="M466.943,0.842l-30,44.362l45-0.26l15-15V7.507c0-4.196-3.443-7.57-7.638-7.506
		C481.81,0.117,474.355,0.4,466.943,0.842z"/>
	<path style="fill:#FF3C19;" d="M7.506,496.943h22.437l15-15c0-236.328,187.598-428.832,422-436.74V0.842
		C208.941,16.204,3.932,228.378,0.001,489.304C-0.062,493.499,3.311,496.943,7.506,496.943z"/>
	<path style="fill:#FF5F21;" d="M466.943,30.891l-30,44.327l45-0.275l15-15v-30C486.866,29.943,476.862,30.262,466.943,30.891z"/>
	<path style="fill:#FF8229;" d="M29.943,496.943h30l15-15c0-219.758,174.17-398.832,392-406.725V30.891
		C223.006,46.357,29.943,249.103,29.943,496.943z"/>
	<path style="fill:#FFA630;" d="M466.943,60.964l-30,44.274l45-0.295l15-15v-30C486.859,59.943,476.857,60.292,466.943,60.964z"/>
	<path style="fill:#FFC938;" d="M59.943,496.943h30l15-15c0-203.188,160.742-368.829,362-376.705V60.964
		C239.589,76.38,59.943,265.678,59.943,496.943z"/>
	<path style="fill:#5B9B40;" d="M466.943,91.038l-30,44.23l45-0.325l15-15v-30C486.853,89.943,476.85,90.316,466.943,91.038z"/>
	<path style="fill:#70AE3E;" d="M89.943,496.943h30l15-15c0-186.617,147.317-338.819,332-346.675v-44.23
		C256.172,106.395,89.943,282.253,89.943,496.943z"/>
	<path style="fill:#3193E0;" d="M466.943,121.124l-30,44.181l45-0.363l15-15v-30C486.845,119.943,476.841,120.345,466.943,121.124z"
		/>
	<path style="fill:#26ABFF;" d="M119.943,496.943h30l15-15c0-170.045,133.892-308.805,302-316.637v-44.181
		C272.758,136.413,119.943,298.829,119.943,496.943z"/>
	<path style="fill:#4663A2;" d="M466.943,151.227l-30,44.104l45-0.388l15-15v-30C486.836,149.943,476.831,150.38,466.943,151.227z"
		/>
	<path style="fill:#3B7BC1;" d="M149.943,496.943h30l15-15c0-153.474,120.467-278.809,272-286.612v-44.104
		C289.347,166.436,149.943,315.407,149.943,496.943z"/>
	<path style="fill:#302C4C;" d="M496.943,179.943c-10.12,0-20.123,0.495-30,1.422l-20,15.067l20,15.067
		c7.475-0.776,15.033-1.27,22.667-1.464c4.075-0.103,7.333-3.415,7.333-7.491V179.943z"/>
	<path style="fill:#5B3364;" d="M179.943,496.943h22.603c4.073,0,7.387-3.253,7.489-7.324
		c3.634-145.049,114.886-263.366,256.908-278.119v-30.134C305.942,196.482,179.943,331.988,179.943,496.943z"/>
</g>
<g>
</g>
<g>
</g>
<g>
</g>
<g>
</g>
<g>
</g>
<g>
</g>
<g>
</g>
<g>
</g>
<g>
</g>
<g>
</g>
<g>
</g>
<g>
</g>
<g>
</g>
<g>
</g>
<g>
</g>
</svg>
