<?xml version="1.0" encoding="iso-8859-1"?>
<!-- Generator: Adobe Illustrator 24.1.1, SVG Export Plug-In . SVG Version: 6.00 Build 0)  -->
<svg version="1.1" id="Capa_1" xmlns="http://www.w3.org/2000/svg" xmlns:xlink="http://www.w3.org/1999/xlink" x="0px" y="0px"
	 viewBox="0 0 497 497" style="enable-background:new 0 0 497 497;" xml:space="preserve">
<g>
	<path style="fill:#A94525;" d="M412.5,159.5H405v-15h7.5c12.406,0,22.5-10.093,22.5-22.5v-7.5h15v7.5
		C450,142.678,433.178,159.5,412.5,159.5z"/>
	<path style="fill:#D45223;" d="M390,159.5h-7.5c-20.678,0-37.5-16.822-37.5-37.5v-7.5h15v7.5c0,12.407,10.094,22.5,22.5,22.5h7.5
		V159.5z"/>
	<rect x="382.5" y="92" style="fill:#D45223;" width="30" height="120"/>
	<path style="fill:#5B9B40;" d="M487.999,81.499c3.479-5.884,4.245-13.275,1.427-20.076c-2.821-6.809-8.599-11.497-15.229-13.193
		c0.961-6.766-1.135-13.883-6.34-19.087s-12.321-7.301-19.087-6.34c-1.696-6.63-6.384-12.408-13.193-15.229
		c-6.801-2.817-14.192-2.051-20.076,1.427l-30,82.999l58.999,30h30c12.426,0,22.5-10.074,22.5-22.5
		C497,92.139,493.464,85.604,487.999,81.499z"/>
	<path style="fill:#70AE3E;" d="M467,99.5c0-7.361-3.536-13.896-9.001-18.001c3.479-5.884,4.245-13.275,1.427-20.076
		c-2.821-6.809-8.599-11.497-15.229-13.193c0.961-6.766-1.135-13.883-6.34-19.087s-12.321-7.301-19.087-6.34
		c-0.42-6.009-1.582-11.245-3.269-13.802C411.397,3.536,404.862,0,397.5,0s-13.896,3.536-18.001,9.001
		c-5.884-3.479-13.275-4.245-20.076-1.427c-6.809,2.821-11.497,8.599-13.193,15.229c-6.766-0.961-13.883,1.135-19.087,6.34
		s-7.301,12.321-6.34,19.087c-6.63,1.696-12.408,6.384-15.229,13.193c-2.817,6.801-2.051,14.192,1.427,20.076
		C301.536,85.604,298,92.139,298,99.5c0,12.426,10.074,22.5,22.5,22.5h124C456.927,122,467,111.927,467,99.5z"/>
	<path style="fill:#30CAF3;" d="M248.5,231.597c-10.008,0-19.187-3.537-26.364-9.426c-2.838-2.328-6.863-2.328-9.701,0
		c-7.177,5.888-16.355,9.426-26.364,9.426s-19.186-3.537-26.364-9.426c-2.838-2.328-6.863-2.328-9.701,0
		c-7.177,5.888-16.355,9.425-26.363,9.425c-10.008,0-19.187-3.537-26.364-9.426c-2.838-2.328-6.863-2.328-9.701,0
		c-7.177,5.888-16.355,9.426-26.364,9.426c-10.04,0-19.244-3.56-26.432-9.481c-2.802-2.309-6.785-2.288-9.589,0.019
		c-5.395,4.438-11.924,7.546-19.089,8.819C2.557,231.585,0,234.717,0,238.32V407l30,30h437V231.597H248.5z"/>
	<path style="fill:#7D3826;" d="M377,407l90,90h22.5c4.142,0,7.5-3.358,7.5-7.5V437L377,407z"/>
	<path style="fill:#A94525;" d="M30,407L0,437l0,52.5c0,4.142,3.358,7.5,7.5,7.5H467v-90H30z"/>
	<path style="fill:#70AE3E;" d="M489.5,182H467l-60,127.5L467,437h30V189.5C497,185.358,493.642,182,489.5,182z"/>
	<path style="fill:#9DCB3B;" d="M347,182c-49.25,0-73.875,26.25-98.5,52.5l-116,120C107.875,380.75,83.25,407,34,407H0v30h467V182
		H347z"/>
	<circle style="fill:#522B28;" cx="467" cy="467" r="7.5"/>
	<path style="fill:#70AE3E;" d="M437,249.5c-4.143,0-7.5-3.358-7.5-7.5v-15c0-4.142,3.357-7.5,7.5-7.5s7.5,3.358,7.5,7.5v15
		C444.5,246.142,441.143,249.5,437,249.5z"/>
	<path style="fill:#5B9B40;" d="M467,234.5c-4.143,0-7.5-3.358-7.5-7.5v-15c0-4.142,3.357-7.5,7.5-7.5s7.5,3.358,7.5,7.5v15
		C474.5,231.142,471.143,234.5,467,234.5z"/>
	<path style="fill:#302C4C;" d="M154.857,53.796c-2.152,0-4.201-0.925-5.625-2.539c-6.484-7.351-15.812-11.567-25.59-11.567
		c-4.142,0-7.5-3.358-7.5-7.5s3.358-7.5,7.5-7.5c11.455,0,22.478,4.015,31.214,11.208c8.736-7.192,19.759-11.208,31.214-11.208
		c4.142,0,7.5,3.358,7.5,7.5s-3.358,7.5-7.5,7.5c-9.778,0-19.105,4.216-25.59,11.567C159.058,52.871,157.01,53.796,154.857,53.796z"
		/>
	<path style="fill:#504B83;" d="M92.429,111c-2.152,0-4.201-0.924-5.625-2.539c-6.484-7.351-15.812-11.567-25.59-11.567
		c-4.142,0-7.5-3.358-7.5-7.5s3.358-7.5,7.5-7.5c11.455,0,22.478,4.015,31.214,11.208c8.736-7.192,19.758-11.208,31.214-11.208
		c4.142,0,7.5,3.358,7.5,7.5s-3.358,7.5-7.5,7.5c-9.778,0-19.105,4.216-25.589,11.567C96.63,110.075,94.581,111,92.429,111z"/>
	<path style="fill:#70AE3E;" d="M158.5,414.5c-4.142,0-7.5-3.358-7.5-7.5v-15c0-4.142,3.358-7.5,7.5-7.5s7.5,3.358,7.5,7.5v15
		C166,411.142,162.642,414.5,158.5,414.5z"/>
	<path style="fill:#70AE3E;" d="M188.5,399.5c-4.142,0-7.5-3.358-7.5-7.5v-15c0-4.142,3.358-7.5,7.5-7.5s7.5,3.358,7.5,7.5v15
		C196,396.142,192.642,399.5,188.5,399.5z"/>
	<path style="fill:#5B9B40;" d="M467,399.5c-4.143,0-7.5-3.358-7.5-7.5v-15c0-4.142,3.357-7.5,7.5-7.5s7.5,3.358,7.5,7.5v15
		C474.5,396.142,471.143,399.5,467,399.5z"/>
	<path style="fill:#70AE3E;" d="M437,414.5c-4.143,0-7.5-3.358-7.5-7.5v-15c0-4.142,3.357-7.5,7.5-7.5s7.5,3.358,7.5,7.5v15
		C444.5,411.142,441.143,414.5,437,414.5z"/>
	<path style="fill:#70AE3E;" d="M407,399.5c-4.143,0-7.5-3.358-7.5-7.5v-15c0-4.142,3.357-7.5,7.5-7.5s7.5,3.358,7.5,7.5v15
		C414.5,396.142,411.143,399.5,407,399.5z"/>
</g>
<g>
</g>
<g>
</g>
<g>
</g>
<g>
</g>
<g>
</g>
<g>
</g>
<g>
</g>
<g>
</g>
<g>
</g>
<g>
</g>
<g>
</g>
<g>
</g>
<g>
</g>
<g>
</g>
<g>
</g>
</svg>
