<?xml version="1.0" encoding="iso-8859-1"?>
<!-- Generator: Adobe Illustrator 24.1.1, SVG Export Plug-In . SVG Version: 6.00 Build 0)  -->
<svg version="1.1" id="Capa_1" xmlns="http://www.w3.org/2000/svg" xmlns:xlink="http://www.w3.org/1999/xlink" x="0px" y="0px"
	 viewBox="0 0 497 497" style="enable-background:new 0 0 497 497;" xml:space="preserve">
<g>
	<path style="fill:#FF8229;" d="M489.391,77.051c-7.638,0.103-15.097,0.36-22.391,0.755L407,377l90-120V84.556
		C497,80.374,493.573,76.994,489.391,77.051z"/>
	<path style="fill:#FFA630;" d="M193.329,185.87c-1.623,1.175-3.231,2.34-4.829,3.496V377H467V77.805
		C332.511,85.075,255.792,140.627,193.329,185.87z"/>
	<path style="fill:#FFA630;" d="M497,257c-10.65,0-20.618-0.376-30.013-1.098L436.985,377L497,287V257z"/>
	<path style="fill:#FFC938;" d="M303.671,185.87C237.818,138.172,156.132,79.005,7.598,77.049C3.42,76.994,0,80.375,0,84.554V287
		l30,90h436.985l0.002-121.099C392.438,250.175,354.304,222.543,303.671,185.87z"/>
	<polygon style="fill:#FFA630;" points="0,287 0,407 135,437 75,287 	"/>
	<polygon style="fill:#FF8229;" points="45,347 45,437 180,437 150,287 75,287 75,317 	"/>
	<path style="fill:#FF5F21;" d="M0,407v82.5c0,4.142,3.358,7.5,7.5,7.5H120l30-90H0z"/>
	<path style="fill:#FF3C19;" d="M437,377l30,120h22.5c4.142,0,7.5-3.358,7.5-7.5V407L437,377z"/>
	<polygon style="fill:#FF5F21;" points="407,377 437,497 467,497 467,377 	"/>
	<polygon style="fill:#FF5F21;" points="467,287 437,362 467,407 497,407 497,287 	"/>
	<polygon style="fill:#FF8229;" points="407,287 377,407 467,407 467,287 	"/>
	<polygon style="fill:#FF5F21;" points="407,407 407,287 347,287 317,407 	"/>
	<polygon style="fill:#FF8229;" points="180,437 347,437 347,287 210,287 	"/>
	<polygon style="fill:#FFA630;" points="210,347 210,287 150,287 150,377 120,407 120,497 240,497 240,377 	"/>
	<polygon style="fill:#FFA630;" points="407,377 300,377 270,407 270,437 330,497 437,497 437,407 	"/>
	<polygon style="fill:#FF5F21;" points="300,437 300,377 240,377 240,497 330,497 330,467 	"/>
	<circle style="fill:#FFA630;" cx="60" cy="257" r="7.5"/>
	<circle style="fill:#FF5F21;" cx="467" cy="227" r="7.5"/>
	<circle style="fill:#FFA630;" cx="30" cy="227" r="7.5"/>
	<path style="fill:#FFA630;" d="M248.5,0v90c24.853,0,45-20.147,45-45S273.353,0,248.5,0z"/>
	<path style="fill:#FFC938;" d="M263.5,45c0-24.853-6.716-45-15-45c-24.853,0-45,20.147-45,45s20.147,45,45,45
		C256.784,90,263.5,69.853,263.5,45z"/>
</g>
<g>
</g>
<g>
</g>
<g>
</g>
<g>
</g>
<g>
</g>
<g>
</g>
<g>
</g>
<g>
</g>
<g>
</g>
<g>
</g>
<g>
</g>
<g>
</g>
<g>
</g>
<g>
</g>
<g>
</g>
</svg>
