<?xml version="1.0" encoding="iso-8859-1"?>
<!-- Generator: Adobe Illustrator 24.1.1, SVG Export Plug-In . SVG Version: 6.00 Build 0)  -->
<svg version="1.1" id="Capa_1" xmlns="http://www.w3.org/2000/svg" xmlns:xlink="http://www.w3.org/1999/xlink" x="0px" y="0px"
	 viewBox="0 0 497 497" style="enable-background:new 0 0 497 497;" xml:space="preserve">
<g>
	<path style="fill:#504B83;" d="M394.624,169.761c-2.594-4.484-7.43-7.508-12.982-7.508s-10.388,3.024-12.982,7.508l-6.729,11.649
		v113.652L467,497h22.5c4.142,0,7.5-3.358,7.5-7.5V347L394.624,169.761z"/>
	<path style="fill:#4663A2;" d="M440.25,317L308.5,88.908h-120l-53.431,92.502l-6.729-11.649c-2.594-4.484-7.43-7.508-12.982-7.508
		s-10.388,3.024-12.982,7.508L0,347v30l30,45L0,467v22.5c0,4.142,3.358,7.5,7.5,7.5H467V317H440.25z"/>
	<path style="fill:#BDF7F7;" d="M261.482,7.508C258.888,3.024,254.052,0,248.5,0l45.218,114.5L308.5,88.908L261.482,7.508z"/>
	<path style="fill:#BDF7F7;" d="M248.5,0c-5.552,0-10.388,3.024-12.982,7.508l-47.018,81.4l30,51.937l30-51.937l30,51.937
		l15.218-26.345L256.35,7.508C254.781,3.024,251.857,0,248.5,0z"/>
	<path style="fill:#BDF7F7;" d="M489.5,257H467l-30,45l30,45h30v-82.5C497,260.358,493.642,257,489.5,257z"/>
	<path style="fill:#FFFFFF;" d="M391,257c-16.569,0-30,13.431-30,30h-75c-8.284,0-15,6.716-15,15c0,8.284,6.716,15,15,15h45
		c0,16.569,13.431,30,30,30h106v-90H391z"/>
	<path style="fill:#BDF7F7;" d="M211,287h-30v30h30c8.284,0,15-6.716,15-15C226,293.716,219.284,287,211,287z"/>
	<path style="fill:#FFFFFF;" d="M195.983,301.275c-0.38-8.068-7.33-14.275-15.407-14.275H166c0-16.569-13.431-30-30-30H7.5
		c-4.142,0-7.5,3.358-7.5,7.5V347h106c16.569,0,30-13.431,30-30h45C189.525,317,196.389,309.889,195.983,301.275z"/>
	<path style="fill:#BDF7F7;" d="M363,407h-30v30h30c8.284,0,15-6.716,15-15C378,413.716,371.284,407,363,407z"/>
	<path style="fill:#FFFFFF;" d="M348,422c0-8.284-6.716-15-15-15c0-16.569-13.431-30-30-30H0v90h136c16.569,0,30-13.431,30-30h167
		C341.284,437,348,430.284,348,422z"/>
</g>
<g>
</g>
<g>
</g>
<g>
</g>
<g>
</g>
<g>
</g>
<g>
</g>
<g>
</g>
<g>
</g>
<g>
</g>
<g>
</g>
<g>
</g>
<g>
</g>
<g>
</g>
<g>
</g>
<g>
</g>
</svg>
