<?xml version="1.0" encoding="iso-8859-1"?>
<!-- Generator: Adobe Illustrator 24.1.1, SVG Export Plug-In . SVG Version: 6.00 Build 0)  -->
<svg version="1.1" id="Capa_1" xmlns="http://www.w3.org/2000/svg" xmlns:xlink="http://www.w3.org/1999/xlink" x="0px" y="0px"
	 viewBox="0 0 497 497" style="enable-background:new 0 0 497 497;" xml:space="preserve">
<g>
	<circle style="fill:#FFA630;" cx="90" cy="120" r="7.5"/>
	<circle style="fill:#FF5F21;" cx="120" cy="150" r="7.5"/>
	<circle style="fill:#FF5F21;" cx="377" cy="120" r="7.5"/>
	<path style="fill:#FFA630;" d="M467,0h-30v60h30c16.568,0,30-13.432,30-30C497,13.432,483.568,0,467,0z"/>
	<path style="fill:#FFC938;" d="M437,0H30C13.432,0,0,13.432,0,30c0,16.568,13.432,30,30,30h30c0,16.568,13.432,30,30,30h91
		c0,16.568,13.432,30,30,30v60h75v-60c16.568,0,30-13.432,30-30h91c16.568,0,30-13.432,30-30c16.568,0,30-13.432,30-30
		C467,13.432,453.568,0,437,0z"/>
	<path style="fill:#504B83;" d="M397.96,336.935l-60.744-171.93C334.128,156.264,325.797,150,316,150h-15v317l196-30v-22.756
		c0-3.948-3.064-7.215-7.004-7.474C447.321,403.959,411.616,375.649,397.96,336.935z"/>
	<path style="fill:#4663A2;" d="M369.668,346.914L300.19,150.262L248.5,167L196,150h-15c-9.797,0-18.128,6.264-21.216,15.004
		L99.04,336.935c-13.656,38.714-49.361,67.025-92.036,69.836C3.064,407.03,0,410.296,0,414.244V437l248.5,51L497,437
		C439.846,437,388.675,400.797,369.668,346.914z"/>
	<path style="fill:#7D3826;" d="M489.5,497H467l-30-30l30-30h30v52.5C497,493.642,493.642,497,489.5,497z"/>
	<path style="fill:#A94525;" d="M398.5,437l-150,20l-150-20H0v52.5c0,4.142,3.358,7.5,7.5,7.5h103.493L248.5,477l137.507,20H467v-60
		H398.5z"/>
	<path style="fill:#FF3C19;" d="M338.5,437l-90,10l-90-10h-60c0,21.335,4.464,41.625,12.493,60h70.431l67.076-20l67.076,20h70.431
		c8.029-18.375,12.493-38.665,12.493-60H338.5z"/>
	<path style="fill:#FF5F21;" d="M308.5,437l-60,20l-60-20h-30c0,23.052,8.671,44.077,22.924,60h134.152
		c14.253-15.923,22.924-36.948,22.924-60H308.5z"/>
	<path style="fill:#FF8229;" d="M188.5,437c0,33.137,26.863,60,60,60s60-26.863,60-60H188.5z"/>
	<path style="fill:#FF5F21;" d="M301,150H196c0,23.781,15.816,43.858,37.5,50.313V392c0,8.284,6.716,15,15,15s15-6.716,15-15
		V200.313C285.184,193.858,301,173.781,301,150z"/>
</g>
<g>
</g>
<g>
</g>
<g>
</g>
<g>
</g>
<g>
</g>
<g>
</g>
<g>
</g>
<g>
</g>
<g>
</g>
<g>
</g>
<g>
</g>
<g>
</g>
<g>
</g>
<g>
</g>
<g>
</g>
</svg>
