<?xml version="1.0" encoding="iso-8859-1"?>
<!-- Generator: Adobe Illustrator 24.1.1, SVG Export Plug-In . SVG Version: 6.00 Build 0)  -->
<svg version="1.1" id="Capa_1" xmlns="http://www.w3.org/2000/svg" xmlns:xlink="http://www.w3.org/1999/xlink" x="0px" y="0px"
	 viewBox="0 0 497 497" style="enable-background:new 0 0 497 497;" xml:space="preserve">
<g>
	<path style="fill:#30CAF3;" d="M489.92,214.524C426.942,210.86,377,158.627,377,94.729V40l-60-30l-68.5,304.088l248.5-60v-32.083
		C497,218.026,493.892,214.755,489.92,214.524z"/>
	<path style="fill:#BDF7F7;" d="M437,0h-30l30,45c0,8.284,6.716,15,15,15c8.284,0,15-6.716,15-15V30C467,13.432,453.569,0,437,0z"/>
	<path style="fill:#7CF0EE;" d="M407,0h-30l30,45c0,8.284,6.716,15,15,15c8.284,0,15-6.716,15-15V30C437,13.432,423.569,0,407,0z"/>
	<path style="fill:#BDF7F7;" d="M377,0h-30l30,45c0,8.284,6.716,15,15,15c8.284,0,15-6.716,15-15V30C407,13.432,393.569,0,377,0z"/>
	<path style="fill:#FFFFFF;" d="M347,0h-30l30,30v15c0,8.284,6.716,15,15,15c8.284,0,15-6.716,15-15V30C377,13.432,363.569,0,347,0z
		"/>
	<path style="fill:#3AE8E6;" d="M347,94.729L347,30c0-16.569-13.431-30-30-30h-0.166c-32.03,0-61.128,12.551-82.648,33.001
		l-151.541,144c-19.931,18.939-46.362,31.103-75.602,32.796C3.086,210.026,0,213.311,0,217.275v40.651l467,56.163v-72.375
		C398.616,227.777,347,167.169,347,94.729z"/>
	<circle style="fill:#7CF0EE;" cx="452" cy="90" r="7.5"/>
	<circle style="fill:#7CF0EE;" cx="422" cy="120" r="7.5"/>
	<path style="fill:#26ABFF;" d="M490.761,250.535c-7.112-1.288-13.594-4.385-18.955-8.795c-1.405-1.156-3.106-1.737-4.806-1.74
		l-30,80l30,10l30-12.136v-60C497,254.222,494.346,251.184,490.761,250.535z"/>
	<path style="fill:#30CAF3;" d="M462.218,241.722c-7.188,5.922-16.392,9.481-26.432,9.481c-10.008,0-19.187-3.537-26.364-9.426
		c-2.838-2.328-6.863-2.328-9.701,0c-7.177,5.888-16.355,9.425-26.364,9.425c-10.008,0-19.186-3.537-26.363-9.425
		c-2.838-2.329-6.863-2.329-9.701,0c-7.177,5.888-16.355,9.426-26.364,9.426s-19.187-3.537-26.364-9.426
		c-2.838-2.328-6.863-2.328-9.701,0c-7.177,5.888-16.355,9.426-26.364,9.426s-19.187-3.537-26.364-9.426
		c-2.838-2.328-6.863-2.328-9.701,0c-7.177,5.888-16.355,9.426-26.364,9.426s-19.186-3.537-26.364-9.426
		c-2.838-2.328-6.863-2.328-9.701,0c-7.177,5.888-16.355,9.425-26.363,9.425c-10.008,0-19.187-3.537-26.364-9.426
		c-2.838-2.328-6.863-2.328-9.701,0c-7.177,5.888-16.355,9.426-26.364,9.426c-10.04,0-19.244-3.56-26.432-9.481
		c-2.802-2.309-6.785-2.288-9.589,0.019c-5.395,4.438-11.924,7.546-19.089,8.819C2.557,251.191,0,254.322,0,257.926v59.939L40.5,330
		H467v-89.999C465.308,239.999,463.616,240.57,462.218,241.722z"/>
	<path style="fill:#3193E0;" d="M490.761,310.535c-7.112-1.288-13.594-4.385-18.955-8.795c-1.405-1.156-3.106-1.737-4.806-1.74
		l-30,80l30,117h22.5c4.142,0,7.5-3.358,7.5-7.5V317.865C497,314.222,494.346,311.184,490.761,310.535z"/>
	<path style="fill:#26ABFF;" d="M462.218,301.722c-7.188,5.922-16.392,9.481-26.432,9.481c-10.008,0-19.186-3.537-26.364-9.425
		c-2.838-2.328-6.863-2.328-9.701,0c-7.177,5.888-16.355,9.425-26.364,9.425c-10.008,0-19.186-3.537-26.363-9.425
		c-2.838-2.328-6.863-2.328-9.701,0c-7.177,5.888-16.355,9.425-26.364,9.425c-10.008,0-19.187-3.537-26.364-9.426
		c-2.838-2.328-6.863-2.328-9.701,0c-7.177,5.888-16.355,9.426-26.364,9.426c-10.008,0-19.187-3.537-26.364-9.426
		c-2.838-2.328-6.863-2.328-9.701,0c-7.177,5.888-16.355,9.426-26.364,9.426c-10.008,0-19.186-3.537-26.364-9.425
		c-2.838-2.328-6.863-2.328-9.701,0c-7.177,5.888-16.355,9.425-26.363,9.425c-10.008,0-19.187-3.537-26.364-9.426
		c-2.838-2.328-6.863-2.328-9.701,0c-7.177,5.888-16.355,9.426-26.364,9.426c-10.04,0-19.244-3.56-26.432-9.481
		c-2.803-2.309-6.785-2.288-9.589,0.019c-5.395,4.439-11.924,7.546-19.089,8.819C2.557,311.191,0,314.322,0,317.926L0,489.5
		c0,4.142,3.358,7.5,7.5,7.5H467V300.001C465.308,299.999,463.616,300.57,462.218,301.722z"/>
</g>
<g>
</g>
<g>
</g>
<g>
</g>
<g>
</g>
<g>
</g>
<g>
</g>
<g>
</g>
<g>
</g>
<g>
</g>
<g>
</g>
<g>
</g>
<g>
</g>
<g>
</g>
<g>
</g>
<g>
</g>
</svg>
