<?xml version="1.0" encoding="iso-8859-1"?>
<!-- Generator: Adobe Illustrator 24.1.1, SVG Export Plug-In . SVG Version: 6.00 Build 0)  -->
<svg version="1.1" id="Capa_1" xmlns="http://www.w3.org/2000/svg" xmlns:xlink="http://www.w3.org/1999/xlink" x="0px" y="0px"
	 viewBox="0 0 497 497" style="enable-background:new 0 0 497 497;" xml:space="preserve">
<g>
	<path style="fill:#FF9B73;" d="M301,332v-30h-60v195h30c24.853,0,45-20.147,45-45C316,392,301,392,301,332z"/>
	<path style="fill:#FFBB90;" d="M286,452c0-26.307-3.061-38.549-6.604-52.724C275.46,383.535,271,365.693,271,332v-30h-75v30
		c0,60-15,60-15,120c0,24.853,20.147,45,45,45h15C265.853,497,286,476.853,286,452z"/>
	<path style="fill:#FFBB90;" d="M301,180v-30h-90v30l90,151.938c7.85,3.055,11.827,8.927,20.158,11.632
		c4.888,1.587,9.865-2.24,9.722-7.377C328.826,262.388,301,259.455,301,180z"/>
	<path style="fill:#FFDBAE;" d="M271,180v-30h-75v30c0,79.453-27.825,82.387-29.88,156.188c-0.144,5.162,4.874,8.97,9.781,7.362
		c11.486-3.763,14.69-13.55,31.349-13.55c20.624,0,20.627,15,41.25,15c20.625,0,20.625-15,41.25-15c4.639,0,8.229,0.762,11.25,1.938
		c-1.315-27.223-7.041-42.266-13.194-59.186C279.929,251.089,271,226.535,271,180z"/>
	<path style="fill:#FFBB90;" d="M377,180h30c49.706,0,90-40.294,90-90L377,30V180z"/>
	<path style="fill:#FFDBAE;" d="M354.167,30v150H377c49.706,0,90-40.294,90-90L354.167,30z"/>
	<path style="fill:#FFFACC;" d="M414.167,90L301.333,30v150h52.833C387.304,180,414.167,139.706,414.167,90z"/>
	<path style="fill:#FFFACC;" d="M0,90c0,49.706,40.294,90,90,90h52.833V30L0,90z"/>
	<path style="fill:#FFDBAE;" d="M82.833,90c0,49.706,26.863,90,60,90h52.833V30L82.833,90z"/>
	<path style="fill:#FFDBAE;" d="M331.333,90L198.5,30l50,150h52.833C317.902,180,331.333,139.706,331.333,90z"/>
	<path style="fill:#FFFACC;" d="M165.667,90c0,49.706,13.431,90,30,90H248.5V30L165.667,90z"/>
	<path style="fill:#FF5F21;" d="M407,0h-30l90,90h30C497,40.294,456.706,0,407,0z"/>
	<path style="fill:#FF7B55;" d="M377,0H90C40.294,0,0,40.294,0,90h467C467,40.294,426.706,0,377,0z"/>
</g>
<g>
</g>
<g>
</g>
<g>
</g>
<g>
</g>
<g>
</g>
<g>
</g>
<g>
</g>
<g>
</g>
<g>
</g>
<g>
</g>
<g>
</g>
<g>
</g>
<g>
</g>
<g>
</g>
<g>
</g>
</svg>
