<?xml version="1.0" encoding="iso-8859-1"?>
<!-- Generator: Adobe Illustrator 24.1.1, SVG Export Plug-In . SVG Version: 6.00 Build 0)  -->
<svg version="1.1" id="Capa_1" xmlns="http://www.w3.org/2000/svg" xmlns:xlink="http://www.w3.org/1999/xlink" x="0px" y="0px"
	 viewBox="0 0 497 497" style="enable-background:new 0 0 497 497;" xml:space="preserve">
<g>
	<path style="fill:#70AE3E;" d="M29.322,38.201c-2.747-5.573-10.715-5.573-13.462,0C5.301,59.622,0,82.975,0,106.339v138.139
		l65.182,13.5l-20-151.639C45.182,82.975,39.881,59.622,29.322,38.201z"/>
	<path style="fill:#70AE3E;" d="M106.223,38.202c-10.558,21.421-15.86,44.773-15.86,68.137l-20,151.639h85.182l-20-151.639
		c0-23.364-5.301-46.717-15.86-68.138C116.938,32.628,108.97,32.628,106.223,38.202z"/>
	<path style="fill:#70AE3E;" d="M196.586,23.202c-10.558,21.421-15.86,44.773-15.86,68.137l-20,166.639h85.182l-20-166.639
		c0-23.364-5.301-46.717-15.86-68.138C207.302,17.628,199.333,17.628,196.586,23.202z"/>
	<path style="fill:#70AE3E;" d="M286.95,23.202c-10.558,21.421-15.86,44.773-15.86,68.137l-20,166.639h85.182l-20-166.639
		c0-23.364-5.301-46.717-15.86-68.138C297.666,17.628,289.697,17.628,286.95,23.202z"/>
	<path style="fill:#70AE3E;" d="M377.314,38.202c-10.558,21.421-15.86,44.773-15.86,68.137l-20,151.639h85.182l-20-151.639
		c0-23.364-5.301-46.717-15.86-68.138C388.029,32.628,380.061,32.628,377.314,38.202z"/>
	<path style="fill:#70AE3E;" d="M467.678,38.202c-10.558,21.421-15.86,44.773-15.86,68.137l-20,151.639l65.182-13.5V106.339
		c0-23.364-5.301-46.717-15.86-68.138C478.393,32.628,470.425,32.628,467.678,38.202z"/>
	<path style="fill:#CEDE51;" d="M74.503,8.201c-2.747-5.573-10.715-5.573-13.462,0c-10.558,21.421-15.86,44.773-15.86,68.137
		v181.639h45.182V76.339C90.363,52.975,85.062,29.622,74.503,8.201z"/>
	<path style="fill:#9DCB3B;" d="M164.867,8.201c-2.747-5.573-10.715-5.573-13.462,0c-10.558,21.421-15.86,44.773-15.86,68.137
		v181.639h45.182V76.339C180.727,52.975,175.426,29.622,164.867,8.201z"/>
	<path style="fill:#9DCB3B;" d="M345.594,8.201c-2.747-5.573-10.715-5.573-13.462,0c-10.558,21.421-15.86,44.773-15.86,68.137
		v181.639h45.182V76.339C361.454,52.975,356.153,29.622,345.594,8.201z"/>
	<path style="fill:#9DCB3B;" d="M255.231,8.201c-2.747-5.573-10.715-5.573-13.462,0c-10.558,21.421-15.86,44.773-15.86,68.137
		v181.639h45.182V76.339C271.091,52.975,265.789,29.622,255.231,8.201z"/>
	<path style="fill:#5B9B40;" d="M435.958,8.201c-2.747-5.573-10.715-5.573-13.462,0c-10.558,21.421-15.86,44.773-15.86,68.137
		v181.639h45.182V76.339C451.818,52.975,446.517,29.622,435.958,8.201z"/>
	<polygon style="fill:#70AE3E;" points="497,244.478 467,244.478 437,304.478 497,274.478 	"/>
	<polygon style="fill:#9DCB3B;" points="391.545,244.478 384.045,251.978 376.545,244.478 120.454,244.478 112.954,251.978 
		105.454,244.478 0,244.478 0,274.478 20,304.478 467,304.478 467,244.478 	"/>
	<polygon style="fill:#522B28;" points="497,274.478 467,274.478 437,371.978 497,326.978 	"/>
	<polygon style="fill:#7D3826;" points="0,274.478 0,326.978 30,371.978 467,371.978 467,274.478 	"/>
	<path style="fill:#A94525;" d="M474.413,326.978c-2.791,0-5.227,0.235-7.413,0.637l-60,125.107l60,40.257h22.5
		c4.142,0,7.5-3.358,7.5-7.5v-158.5H474.413z"/>
	<path style="fill:#D45223;" d="M429.23,341.978c-22.592,0-22.592-15-45.185-15c-22.591,0-22.591,15-45.183,15
		c-22.591,0-22.591-15-45.182-15c-22.588,0-22.588,15-45.177,15c-22.591,0-22.591-15-45.182-15c-22.591,0-22.591,15-45.183,15
		c-22.593,0-22.593-15-45.185-15c-22.592,0-22.592,15-45.183,15c-22.591,0-22.591-15-45.182-15H0v158.5c0,4.142,3.358,7.5,7.5,7.5
		H467v-165.37C451.48,330.453,449.034,341.978,429.23,341.978z"/>
	<circle style="fill:#7D3826;" cx="467" cy="394.478" r="7.5"/>
	<circle style="fill:#A94525;" cx="263.5" cy="462.978" r="7.5"/>
	<circle style="fill:#A94525;" cx="233.5" cy="432.978" r="7.5"/>
	<path style="fill:#CEDE51;" d="M384.045,401.978c12.406,0,22.5,10.094,22.5,22.5v38.5c0,4.143,3.357,7.5,7.5,7.5s7.5-3.357,7.5-7.5
		v-29.71c8.729,3.096,15,11.433,15,21.21v8.5c0,4.143,3.357,7.5,7.5,7.5s7.5-3.357,7.5-7.5v-8.5c0-18.334-13.229-33.627-30.64-36.86
		c-3.234-17.411-18.526-30.64-36.86-30.64"/>
	<path style="fill:#FFFACC;" d="M376.545,244.478v143.263c-14.88,3.035-26.58,14.905-29.36,29.877
		c-17.411,3.233-30.64,18.526-30.64,36.86v8.5c0,4.143,3.357,7.5,7.5,7.5s7.5-3.357,7.5-7.5v-8.5c0-9.777,6.271-18.114,15-21.21
		v29.71c0,4.143,3.357,7.5,7.5,7.5s7.5-3.357,7.5-7.5v-38.5c0-9.777,6.271-18.114,15-21.21v59.71c0,4.143,3.357,7.5,7.5,7.5
		s7.5-3.357,7.5-7.5v-218.5H376.545z"/>
	<path style="fill:#CEDE51;" d="M112.954,401.978c12.406,0,22.5,10.094,22.5,22.5v38.5c0,4.143,3.357,7.5,7.5,7.5s7.5-3.357,7.5-7.5
		v-29.71c8.729,3.096,15,11.433,15,21.21v8.5c0,4.143,3.357,7.5,7.5,7.5s7.5-3.357,7.5-7.5v-8.5c0-18.334-13.229-33.627-30.64-36.86
		c-3.234-17.411-18.526-30.64-36.86-30.64"/>
	<path style="fill:#FFFACC;" d="M105.454,244.478v143.263c-14.88,3.035-26.58,14.905-29.36,29.877
		c-17.411,3.233-30.64,18.526-30.64,36.86v8.5c0,4.143,3.357,7.5,7.5,7.5s7.5-3.357,7.5-7.5v-8.5c0-9.777,6.271-18.114,15-21.21
		v29.71c0,4.143,3.357,7.5,7.5,7.5s7.5-3.357,7.5-7.5v-38.5c0-9.777,6.271-18.114,15-21.21v59.71c0,4.143,3.357,7.5,7.5,7.5
		s7.5-3.357,7.5-7.5v-218.5H105.454z"/>
</g>
<g>
</g>
<g>
</g>
<g>
</g>
<g>
</g>
<g>
</g>
<g>
</g>
<g>
</g>
<g>
</g>
<g>
</g>
<g>
</g>
<g>
</g>
<g>
</g>
<g>
</g>
<g>
</g>
<g>
</g>
</svg>
