<?xml version="1.0" encoding="iso-8859-1"?>
<!-- Generator: Adobe Illustrator 24.1.1, SVG Export Plug-In . SVG Version: 6.00 Build 0)  -->
<svg version="1.1" id="Capa_1" xmlns="http://www.w3.org/2000/svg" xmlns:xlink="http://www.w3.org/1999/xlink" x="0px" y="0px"
	 viewBox="0 0 497 497" style="enable-background:new 0 0 497 497;" xml:space="preserve">
<g>
	<path style="fill:#A94525;" d="M184.25,234.5v7.5c0,9.777-6.271,18.114-15,21.21V234.5h-15V272c0,12.406-10.093,22.5-22.5,22.5
		h-7.5v15h7.5c18.334,0,33.627-13.229,36.86-30.64c17.411-3.234,30.64-18.526,30.64-36.86v-7.5H184.25z"/>
	<path style="fill:#D45223;" d="M101.75,294.5c-12.407,0-22.5-10.094-22.5-22.5v-37.5h-15v28.71c-8.729-3.096-15-11.433-15-21.21
		v-7.5h-15v7.5c0,18.334,13.229,33.626,30.64,36.86c3.233,17.411,18.526,30.64,36.86,30.64h7.5v-15H101.75z"/>
	<path style="fill:#A94525;" d="M447.75,234.5v7.5c0,9.777-6.271,18.114-15,21.21V234.5h-15V272c0,12.406-10.093,22.5-22.5,22.5
		h-7.5v15h7.5c18.334,0,33.627-13.229,36.86-30.64c17.411-3.234,30.64-18.526,30.64-36.86v-7.5H447.75z"/>
	<path style="fill:#D45223;" d="M365.25,294.5c-12.407,0-22.5-10.094-22.5-22.5v-37.5h-15v28.71c-8.729-3.096-15-11.433-15-21.21
		v-7.5h-15v7.5c0,18.334,13.229,33.626,30.64,36.86c3.233,17.411,18.526,30.64,36.86,30.64h7.5v-15H365.25z"/>
	<polygon style="fill:#A94525;" points="101.75,212 101.75,272 116.75,302 131.75,272 131.75,212 	"/>
	<rect x="101.75" y="272" style="fill:#D45223;" width="30" height="105"/>
	<path style="fill:#5B9B40;" d="M224.486,190.57c3.053-7.159,3.341-15.49,0.127-23.248c-3.214-7.758-9.308-13.446-16.529-16.349
		c0.081-7.782-2.842-15.589-8.779-21.527c-5.938-5.938-13.745-8.86-21.527-8.779c-2.903-7.221-8.591-13.315-16.349-16.529
		c-7.758-3.214-16.09-2.926-23.248,0.127L173.5,242h30c16.569,0,30-13.431,30-30C233.5,203.603,230.046,196.016,224.486,190.57z"/>
	<path style="fill:#70AE3E;" d="M203.5,212c0-8.397-3.454-15.984-9.014-21.43c3.053-7.159,3.341-15.49,0.127-23.248
		c-3.214-7.758-9.308-13.446-16.529-16.349c0.081-7.782-2.842-15.589-8.779-21.527c-5.938-5.938-13.745-8.86-21.527-8.779
		c-1.704-7.221-5.043-13.188-9.597-16.402c-5.445-5.56-13.033-9.014-21.43-9.014s-15.984,3.454-21.43,9.014
		c-7.159-3.053-15.49-3.341-23.248-0.127c-7.758,3.214-13.446,9.308-16.349,16.529c-7.782-0.081-15.589,2.842-21.527,8.779
		c-5.938,5.938-8.86,13.745-8.779,21.527c-7.221,2.903-13.315,8.591-16.529,16.349s-2.926,16.09,0.127,23.248
		C3.454,196.016,0,203.603,0,212c0,16.569,13.431,30,30,30h143.5C190.069,242,203.5,228.569,203.5,212z"/>
	<polygon style="fill:#A94525;" points="365.25,212 365.25,272 380.25,302 395.25,272 395.25,212 	"/>
	<rect x="365.25" y="272" style="fill:#D45223;" width="30" height="105"/>
	<path style="fill:#468943;" d="M487.986,190.57c3.053-7.159,3.341-15.49,0.127-23.248c-3.214-7.758-9.308-13.446-16.529-16.349
		c0.081-7.782-2.842-15.589-8.779-21.527c-5.938-5.938-13.745-8.86-21.527-8.779c-2.903-7.221-8.591-13.315-16.349-16.529
		c-7.758-3.214-16.09-2.926-23.248,0.127L437,242h30c16.569,0,30-13.431,30-30C497,203.603,493.546,196.016,487.986,190.57z"/>
	<path style="fill:#5B9B40;" d="M467,212c0-8.397-3.454-15.984-9.014-21.43c3.053-7.159,3.341-15.49,0.127-23.248
		c-3.214-7.758-9.308-13.446-16.529-16.349c0.081-7.782-2.842-15.589-8.779-21.527c-5.938-5.938-13.745-8.86-21.527-8.779
		c-1.704-7.221-5.043-13.188-9.597-16.402c-5.445-5.56-13.033-9.014-21.43-9.014s-15.984,3.454-21.43,9.014
		c-7.159-3.053-15.49-3.341-23.248-0.127c-7.758,3.214-13.446,9.308-16.349,16.529c-7.782-0.081-15.589,2.842-21.527,8.779
		c-5.938,5.938-8.86,13.745-8.779,21.527c-7.221,2.903-13.315,8.591-16.529,16.349s-2.926,16.09,0.127,23.248
		c-5.56,5.445-9.014,13.033-9.014,21.43c0,16.569,13.431,30,30,30H437C453.569,242,467,228.569,467,212z"/>
	<path style="fill:#FFA630;" d="M248.5,0v90c24.853,0,45-20.147,45-45S273.353,0,248.5,0z"/>
	<path style="fill:#FFC938;" d="M263.5,45c0-24.853-6.716-45-15-45c-24.853,0-45,20.147-45,45s20.147,45,45,45
		C256.784,90,263.5,69.853,263.5,45z"/>
	<path style="fill:#5B9B40;" d="M467,347l-30,75l60-30v-37.5c0-4.142-3.358-7.5-7.5-7.5H467z"/>
	<path style="fill:#70AE3E;" d="M0,354.5V452l20,20h447V347H7.5C3.358,347,0,350.358,0,354.5z"/>
	<path style="fill:#70AE3E;" d="M437,452l30,45h22.5c4.142,0,7.5-3.358,7.5-7.5V392h-30L437,452z"/>
	<path style="fill:#9DCB3B;" d="M102.174,392c-8.077,0-15.027,6.207-15.406,14.275C86.362,414.889,93.225,422,101.75,422
		s15.388,7.111,14.983,15.725c-0.38,8.068-7.33,14.275-15.406,14.275H0v37.5c0,4.142,3.358,7.5,7.5,7.5H467V392H102.174z"/>
	<path style="fill:#70AE3E;" d="M158.5,474.5c-4.142,0-7.5-3.357-7.5-7.5v-15c0-4.143,3.358-7.5,7.5-7.5s7.5,3.357,7.5,7.5v15
		C166,471.143,162.642,474.5,158.5,474.5z"/>
	<path style="fill:#70AE3E;" d="M188.5,459.5c-4.142,0-7.5-3.357-7.5-7.5v-15c0-4.143,3.358-7.5,7.5-7.5s7.5,3.357,7.5,7.5v15
		C196,456.143,192.642,459.5,188.5,459.5z"/>
	<path style="fill:#5B9B40;" d="M467,459.5c-4.142,0-7.5-3.357-7.5-7.5v-15c0-4.143,3.358-7.5,7.5-7.5s7.5,3.357,7.5,7.5v15
		C474.5,456.143,471.142,459.5,467,459.5z"/>
	<path style="fill:#70AE3E;" d="M437,474.5c-4.142,0-7.5-3.357-7.5-7.5v-15c0-4.143,3.358-7.5,7.5-7.5s7.5,3.357,7.5,7.5v15
		C444.5,471.143,441.142,474.5,437,474.5z"/>
	<path style="fill:#70AE3E;" d="M407,459.5c-4.142,0-7.5-3.357-7.5-7.5v-15c0-4.143,3.358-7.5,7.5-7.5s7.5,3.357,7.5,7.5v15
		C414.5,456.143,411.142,459.5,407,459.5z"/>
</g>
<g>
</g>
<g>
</g>
<g>
</g>
<g>
</g>
<g>
</g>
<g>
</g>
<g>
</g>
<g>
</g>
<g>
</g>
<g>
</g>
<g>
</g>
<g>
</g>
<g>
</g>
<g>
</g>
<g>
</g>
</svg>
