<?xml version="1.0" encoding="iso-8859-1"?>
<!-- Generator: Adobe Illustrator 24.1.1, SVG Export Plug-In . SVG Version: 6.00 Build 0)  -->
<svg version="1.1" id="Capa_1" xmlns="http://www.w3.org/2000/svg" xmlns:xlink="http://www.w3.org/1999/xlink" x="0px" y="0px"
	 viewBox="0 0 494.941 494.941" style="enable-background:new 0 0 494.941 494.941;" xml:space="preserve">
<g>
	<g>
		<path style="fill:#FF3C19;" d="M434.5,163.421L355.282,32.584L247.171,494.94c120.812,0.162,218.799-97.726,218.799-218.5
			C465.97,235.074,454.472,196.396,434.5,163.421z"/>
		<path style="fill:#FF5F21;" d="M435.97,276.441c0-41.366-8.382-80.044-22.941-113.02L355.282,32.584
			c-1.678-2.771-4.945-4.152-8.101-3.424l-46.606,10.748L252.121,1.616c-2.726-2.154-6.575-2.154-9.301,0l-48.454,38.293
			L147.76,29.161c-3.156-0.728-6.423,0.653-8.101,3.424L60.441,163.421c-19.852,32.777-31.332,71.189-31.469,112.275
			c-0.405,121.28,96.919,219.082,218.199,219.244C351.418,495.102,435.97,397.215,435.97,276.441z"/>
		<path style="fill:#FFA630;" d="M408.837,178.959L338.053,62.053L247.47,464.941c103.939,0,188.5-84.561,188.5-188.5
			C435.97,241.976,426.589,208.268,408.837,178.959z"/>
		<path style="fill:#FFC938;" d="M405.97,276.441c0-34.465-6.507-68.173-18.821-97.481L338.053,62.053l-44.776,10.326L247.47,36.178
			l-45.807,36.201l-44.776-10.326L86.101,178.962c-17.749,29.306-27.131,63.014-27.131,97.479c0,103.939,84.561,188.5,188.5,188.5
			C334.868,464.941,405.97,380.38,405.97,276.441z"/>
		<path style="fill:#FF8229;" d="M336.3,178.737l-88.828-70.202c0,0-0.002,326.406-0.002,326.406c79.126,0,143.5-64.374,143.5-143.5
			C390.97,247.262,371.048,206.187,336.3,178.737z"/>
		<path style="fill:#FFA630;" d="M360.97,291.441c0-44.179-15.757-85.254-43.241-112.704l-70.258-70.202l-88.852,70.218
			c-34.731,27.44-54.65,68.514-54.65,112.688c0,79.126,64.374,143.5,143.5,143.5C310.054,434.941,360.97,370.567,360.97,291.441z"/>
	</g>
	<g>
		<path style="fill:#FF3C19;" d="M314.97,322.441v7.5c0,9.777-6.271,18.114-15,21.21v-28.71h-15v37.5
			c0,12.406-10.094,22.5-22.5,22.5h-7.5v15h7.5c18.334,0,33.626-13.229,36.86-30.64c17.411-3.234,30.64-18.526,30.64-36.86v-7.5
			H314.97z"/>
		<polygon style="fill:#FF3C19;" points="232.47,299.941 232.47,359.941 247.47,389.941 262.47,359.941 262.47,299.941 		"/>
		<path style="fill:#FF5F21;" d="M232.47,359.941v22.5c-12.406,0-22.5-10.094-22.5-22.5v-37.5h-15v28.71
			c-8.729-3.096-15-11.433-15-21.21v-7.5h-15v7.5c0,18.334,13.229,33.626,30.64,36.86c3.234,17.411,18.526,30.64,36.86,30.64v77.5
			h30v-115H232.47z"/>
		<path style="fill:#FF3C19;" d="M355.206,278.511c3.053-7.159,3.341-15.49,0.127-23.248c-3.214-7.758-9.308-13.446-16.529-16.349
			c0.081-7.782-2.842-15.589-8.779-21.527s-13.745-8.86-21.527-8.779c-2.903-7.221-8.591-13.315-16.349-16.529
			c-7.758-3.214-16.09-2.926-23.248,0.127l35.32,137.736h30c16.569,0,30-13.431,30-30
			C364.22,291.543,360.766,283.956,355.206,278.511z"/>
		<path style="fill:#FF5F21;" d="M334.22,299.941c0-8.397-3.454-15.984-9.014-21.43c3.053-7.159,3.341-15.49,0.127-23.248
			c-3.214-7.758-9.308-13.446-16.529-16.349c0.081-7.782-2.842-15.589-8.779-21.527s-13.745-8.86-21.527-8.779
			c-1.704-7.221-5.043-13.188-9.597-16.402c-5.445-5.56-13.033-9.014-21.43-9.014s-15.984,3.454-21.43,9.014
			c-7.159-3.053-15.49-3.341-23.248-0.127c-7.758,3.214-13.446,9.308-16.349,16.529c-7.782-0.081-15.589,2.842-21.527,8.779
			s-8.86,13.745-8.779,21.527c-7.221,2.903-13.315,8.591-16.529,16.349s-2.926,16.09,0.127,23.248
			c-5.56,5.445-9.014,13.033-9.014,21.43c0,16.569,13.431,30,30,30h143.5C320.789,329.941,334.22,316.509,334.22,299.941z"/>
	</g>
</g>
<g>
</g>
<g>
</g>
<g>
</g>
<g>
</g>
<g>
</g>
<g>
</g>
<g>
</g>
<g>
</g>
<g>
</g>
<g>
</g>
<g>
</g>
<g>
</g>
<g>
</g>
<g>
</g>
<g>
</g>
</svg>
