<?xml version="1.0" encoding="iso-8859-1"?>
<!-- Generator: Adobe Illustrator 24.1.1, SVG Export Plug-In . SVG Version: 6.00 Build 0)  -->
<svg version="1.1" id="Capa_1" xmlns="http://www.w3.org/2000/svg" xmlns:xlink="http://www.w3.org/1999/xlink" x="0px" y="0px"
	 viewBox="0 0 497 497" style="enable-background:new 0 0 497 497;" xml:space="preserve">
<g>
	<path style="fill:#FFA630;" d="M188.5,173.5C188.5,77.678,110.822,0,15,0C6.716,0,0,6.716,0,15s6.716,15,15,15
		c-0.206,0-0.407,0.022-0.611,0.031L125.452,293.5h41.47l24.316-107.483C189.485,182.206,188.5,177.969,188.5,173.5z"/>
	<path style="fill:#FF8229;" d="M191.237,186.017C171.243,202.524,158.5,227.5,158.5,255.453c0,13.599,3.022,26.49,8.421,38.047
		H248.5v-90h-30C206.401,203.5,195.982,196.333,191.237,186.017z"/>
	<path style="fill:#FFF066;" d="M163.094,227.177c-13.962-13.621-22.643-32.631-22.643-53.677h15
		c0-78.438-62.935-142.167-141.063-143.469C6.39,30.354,0,36.922,0,45c0,8.284,6.716,15,15,15C6.716,60,0,66.716,0,75
		s6.716,15,15,15c-8.284,0-15,6.716-15,15s6.716,15,15,15c-8.284,0-15,6.716-15,15s6.716,15,15,15c0,16.569,13.431,30,30,30
		c0,16.569,13.431,30,30,30c0,59.263,42.962,108.486,99.438,118.239L163.094,227.177z"/>
	<path style="fill:#FFC938;" d="M163.094,227.177c-2.998,9.008-4.594,18.542-4.594,28.276c0,7.665,0.979,15.306,2.905,22.699
		l13.033,50.086C181.12,329.392,187.989,330,195,330h53.5v-81.5h-33.048C195.077,248.5,176.611,240.364,163.094,227.177z"/>
	<path style="fill:#FFC938;" d="M155.452,173.5c0-8.284-6.716-15-15-15s-15,6.716-15,15c0,28.443,13.198,53.799,33.799,70.292
		l10.331-31.631C160.771,201.718,155.452,188.233,155.452,173.5z"/>
	<path style="fill:#FFA630;" d="M169.582,212.161c-5.283,9.611-8.864,20.289-10.331,31.631
		c15.401,12.33,34.938,19.708,56.201,19.708H248.5v-30h-33.048C197.048,233.5,180.588,225.206,169.582,212.161z"/>
	<path style="fill:#FF8229;" d="M314.561,436.512L278.5,348.528h-52.422L293.5,482c0,8.284,6.716,15,15,15s15-6.716,15-15
		C323.5,465.897,320.314,450.542,314.561,436.512z"/>
	<path style="fill:#FFA630;" d="M246.078,348.528H218.5l-36.061,87.984c-5.754,14.03-8.939,29.385-8.939,45.488
		c0,8.284,6.716,15,15,15s15-6.716,15-15c0,8.284,6.716,15,15,15s15-6.716,15-15c0,8.284,6.716,15,15,15s15-6.716,15-15
		c0,8.284,6.716,15,15,15s15-6.716,15-15c0-11.797-2.253-23.271-6.696-34.105L246.078,348.528z"/>
	<path style="fill:#FFA630;" d="M497,15c0-8.284-6.716-15-15-15c-10.276,0-20.342,0.9-30.128,2.613
		c0,0.023-24.791,29.567-24.791,29.567l30,58.413l25.529-60.562C482.407,30.022,482.206,30,482,30C490.284,30,497,23.284,497,15z"/>
	<path style="fill:#FFA630;" d="M469.249,14.803c-1.439-8.158-9.219-13.606-17.377-12.167C370.412,16.876,308.5,87.955,308.5,173.5
		c0,16.569-13.431,30-30,30h-30v90h123.048l85.533-202.907V32.18C465.24,30.741,470.688,22.961,469.249,14.803z"/>
	<path style="fill:#FFC938;" d="M248.5,270v60H302c66.274,0,120-53.726,120-120L248.5,270z"/>
	<path style="fill:#FFF066;" d="M497,75c0-8.284-6.716-15-15-15c8.284,0,15-6.716,15-15c0-8.078-6.39-14.646-14.389-14.969
		C404.483,31.333,341.548,95.062,341.548,173.5h15c0,41.421-33.579,75-75,75H248.5V300H332c49.706,0,90-40.294,90-90
		c16.569,0,30-13.431,30-30c16.569,0,30-13.431,30-30c8.284,0,15-6.716,15-15s-6.716-15-15-15c8.284,0,15-6.716,15-15
		s-6.716-15-15-15C490.284,90,497,83.284,497,75z"/>
	<path style="fill:#FFC938;" d="M281.548,233.5c33.137,0,60-26.863,60-60c0-8.284,6.716-15,15-15s15,6.716,15,15
		c0,49.706-40.294,90-90,90H248.5v-30H281.548z"/>
	<path style="fill:#FFF066;" d="M228.5,300l20,90c16.569,0,30-13.431,30-30v-60H228.5z"/>
	<path style="fill:#FFFACC;" d="M218.5,300v60c0,16.569,13.431,30,30,30v-90H218.5z"/>
	<path style="fill:#FFC938;" d="M278.5,203.5v-60c0-16.569-13.431-30-30-30l-20,141.953L248.5,360
		c20.925,0,38.511-14.283,43.548-33.63l14.513-55.771c1.26-4.838,1.938-9.911,1.938-15.145
		C308.5,233.249,296.429,213.875,278.5,203.5z"/>
	<path style="fill:#FFF066;" d="M270.274,326.37l7.257-55.771c0.63-4.838,0.969-9.911,0.969-15.145
		c0-10.666-5.758-20.624-15.026-25.987c-9.267-5.363-14.974-15.259-14.974-25.966v-90c-16.569,0-30,13.431-30,30v60
		c-17.929,10.375-30,29.749-30,51.953c0,5.234,0.678,10.307,1.938,15.145l14.513,55.771C209.989,345.717,227.575,360,248.5,360
		C258.962,360,267.755,345.717,270.274,326.37z"/>
	<path style="fill:#FF5F21;" d="M248.5,166c-4.143,0-7.5-3.357-7.5-7.5v-15c0-4.143,3.357-7.5,7.5-7.5s7.5,3.357,7.5,7.5v15
		C256,162.643,252.643,166,248.5,166z"/>
</g>
<g>
</g>
<g>
</g>
<g>
</g>
<g>
</g>
<g>
</g>
<g>
</g>
<g>
</g>
<g>
</g>
<g>
</g>
<g>
</g>
<g>
</g>
<g>
</g>
<g>
</g>
<g>
</g>
<g>
</g>
</svg>
