<?xml version="1.0" encoding="iso-8859-1"?>
<!-- Generator: Adobe Illustrator 24.1.1, SVG Export Plug-In . SVG Version: 6.00 Build 0)  -->
<svg version="1.1" id="Capa_1" xmlns="http://www.w3.org/2000/svg" xmlns:xlink="http://www.w3.org/1999/xlink" x="0px" y="0px"
	 viewBox="0 0 496.56 496.56" style="enable-background:new 0 0 496.56 496.56;" xml:space="preserve">
<g>
	<path style="fill:#3B7BC1;" d="M302.953,446.068L197.436,333.755L187,303.28c77.898,0,141.547,61.006,145.776,137.847
		c0.246,4.462-3.442,8.176-7.904,7.921C317.396,448.62,310.076,447.608,302.953,446.068z"/>
	<path style="fill:#26ABFF;" d="M302.953,446.068c-36.685-7.934-68.082-30.079-88.135-60.404c-1.879-2.842-2.819-6.113-2.819-9.384
		l-14.563-42.525C255.476,338.955,301.341,387.08,302.953,446.068z"/>
	<path style="fill:#3B7BC1;" d="M302.953,50.492L197.436,162.805L187,193.28c77.898,0,141.547-61.006,145.776-137.847
		c0.246-4.462-3.442-8.176-7.904-7.921C317.396,47.94,310.076,48.952,302.953,50.492z"/>
	<path style="fill:#26ABFF;" d="M302.953,50.492c-36.685,7.934-68.082,30.079-88.135,60.404c-1.879,2.842-2.819,6.113-2.819,9.384
		l-14.563,42.525C255.476,157.605,301.341,109.48,302.953,50.492z"/>
	<path style="fill:#30CAF3;" d="M424,248.28l42.952,69.788c7.05,1.525,14.293,2.532,21.69,2.967c4.596,0.27,8.399-3.68,7.868-8.253
		C492.3,276.468,461.442,248.28,424,248.28z"/>
	<path style="fill:#30CAF3;" d="M466.952,178.492L424,248.28c37.442,0,68.3-28.188,72.511-64.501
		c0.53-4.574-3.272-8.524-7.868-8.253C481.245,175.961,474.002,176.968,466.952,178.492z"/>
	<path style="fill:#3AE8E6;" d="M424,248.28c23.114,0,41.961-30.963,42.952-69.788c-36.684,7.934-68.08,30.079-88.133,60.403
		c-3.759,5.684-3.759,13.085,0,18.769c20.053,30.324,51.449,52.469,88.133,60.403C465.961,279.242,447.114,248.28,424,248.28z"/>
	<path style="fill:#26ABFF;" d="M419.061,231.825C374.651,164.615,298.501,120.28,212,120.28v256
		c86.501,0,162.651-44.335,207.061-111.545C425.646,254.769,425.646,241.791,419.061,231.825z"/>
	<path style="fill:#30CAF3;" d="M389.76,264.735c5.653-9.966,5.653-22.943,0-32.909C351.634,164.615,286.26,120.28,212,120.28
		c-44.466,0-86.196,11.718-122.286,32.234l0,191.532c36.09,20.516,77.82,32.234,122.286,32.234
		C286.26,376.28,351.634,331.945,389.76,264.735z"/>
	<path style="fill:#3193E0;" d="M126.562,203.28v90c39.319,0,78.638-15,108.638-45C205.2,218.281,165.881,203.281,126.562,203.28z"
		/>
	<path style="fill:#26ABFF;" d="M205.2,248.28c-21.715-30-50.176-45-78.638-45c-0.002,0-0.002,90-0.002,90
		C155.024,293.28,183.485,278.28,205.2,248.28z"/>
	<path style="fill:#BDF7F7;" d="M4.939,231.825c21.581-32.661,50.658-59.917,84.775-79.311C117.362,175.268,135,209.711,135,248.28
		s-17.638,73.012-45.286,95.766c-34.117-19.394-63.194-46.651-84.775-79.311C-1.646,254.769-1.646,241.791,4.939,231.825z"/>
	<path style="fill:#FFA630;" d="M78.5,218.28l-15,30l15,30c16.569,0,30-13.431,30-30S95.069,218.28,78.5,218.28z"/>
	<path style="fill:#FFC938;" d="M48.5,248.28c0,16.569,13.431,30,30,30v-60C61.931,218.28,48.5,231.711,48.5,248.28z"/>
	<circle style="fill:#302C4C;" cx="78.5" cy="248.28" r="7.5"/>
	<circle style="fill:#26ABFF;" cx="248.5" cy="331.28" r="7.5"/>
	<circle style="fill:#26ABFF;" cx="248.5" cy="165.28" r="7.5"/>
	<circle style="fill:#26ABFF;" cx="278.5" cy="301.28" r="7.5"/>
	<circle style="fill:#3B7BC1;" cx="394" cy="248.28" r="7.5"/>
</g>
<g>
</g>
<g>
</g>
<g>
</g>
<g>
</g>
<g>
</g>
<g>
</g>
<g>
</g>
<g>
</g>
<g>
</g>
<g>
</g>
<g>
</g>
<g>
</g>
<g>
</g>
<g>
</g>
<g>
</g>
</svg>
