<?xml version="1.0" encoding="iso-8859-1"?>
<!-- Generator: Adobe Illustrator 24.1.1, SVG Export Plug-In . SVG Version: 6.00 Build 0)  -->
<svg version="1.1" id="Capa_1" xmlns="http://www.w3.org/2000/svg" xmlns:xlink="http://www.w3.org/1999/xlink" x="0px" y="0px"
	 viewBox="0 0 512.004 512.004" style="enable-background:new 0 0 512.004 512.004;" xml:space="preserve">
<g>
	<path style="fill:#504B83;" d="M286.002,37.503c-8.284,0-15,6.716-15,15l-30,30l30,20v-20c16.569,0,30-13.432,30-30
		C301.002,44.219,294.286,37.503,286.002,37.503z"/>
	<path style="fill:#4663A2;" d="M271.002,52.503c0-8.284-6.716-15-15-15s-15,6.716-15,15c0-8.284-6.716-15-15-15s-15,6.716-15,15
		c0,16.568,13.431,30,30,30S271.002,69.072,271.002,52.503z"/>
	<path style="fill:#5B3364;" d="M158.502,219.503h-60c-15.456,0-28.177,11.69-29.817,26.709l-19.2,19.2
		c-4.25,4.25-9.9,6.591-15.91,6.591H7.502c-4.142,0-7.5,3.357-7.5,7.5s3.358,7.5,7.5,7.5h26.074c10.016,0,19.433-3.9,26.516-10.983
		l26.517-26.517h71.894V219.503z"/>
	<path style="fill:#302C4C;" d="M504.502,272.003h-26.074c-6.01,0-11.66-2.341-15.91-6.591l-19.2-19.2
		c-1.639-15.02-14.361-26.709-29.817-26.709h-30l30,30h11.894l26.517,26.517c7.083,7.083,16.5,10.983,26.516,10.983h26.074
		c4.142,0,7.5-3.357,7.5-7.5S508.644,272.003,504.502,272.003z"/>
	<path style="fill:#5B3364;" d="M383.502,219.503h-30v30h60C413.502,232.935,400.07,219.503,383.502,219.503z"/>
	<path style="fill:#5B3364;" d="M158.502,309.503v-30h-60c-16.568,0-30,13.431-30,30v15c0,64.602,17.004,128.144,49.175,183.756
		c1.39,2.402,3.909,3.745,6.499,3.745c1.274,0,2.566-0.325,3.749-1.009c3.585-2.074,4.811-6.662,2.737-10.248
		c-30.852-53.332-47.159-114.276-47.159-176.244v-15H158.502z"/>
	<path style="fill:#302C4C;" d="M413.502,279.503h-30l30,30h15v15c0,61.968-16.307,122.912-47.159,176.244
		c-2.074,3.586-0.849,8.174,2.737,10.248c1.183,0.684,2.474,1.009,3.749,1.009c2.589,0,5.109-1.343,6.499-3.745
		c32.17-55.612,49.175-119.154,49.175-183.756v-15C443.502,292.935,430.07,279.503,413.502,279.503z"/>
	<path style="fill:#5B3364;" d="M383.502,279.503h-30v30h60C413.502,292.935,400.07,279.503,383.502,279.503z"/>
	<path style="fill:#5B3364;" d="M271.002,82.503h-30v75l75-30C316.002,102.753,295.752,82.503,271.002,82.503z"/>
	<path style="fill:#504B83;" d="M241.002,82.503c-24.75,0-45,20.25-45,45l45,30l45-30
		C286.002,102.753,265.752,82.503,241.002,82.503z"/>
	<path style="fill:#504B83;" d="M196.002,127.503h-112.5c0-62.032,50.467-112.5,112.5-112.5c4.142,0,7.5-3.357,7.5-7.5
		s-3.358-7.5-7.5-7.5c-14.627,0-28.683,2.483-41.779,7.038l-0.998-2.408c-1.585-3.827-5.972-5.643-9.799-4.059
		c-3.827,1.585-5.644,5.972-4.059,9.799l1.004,2.423c-10.57,5.147-20.323,11.716-29.018,19.451l-5.507-5.507
		c-2.929-2.928-7.678-2.928-10.606,0c-2.929,2.93-2.929,7.678,0,10.607l5.506,5.506c-7.735,8.695-14.304,18.448-19.451,29.018
		l-7.146-2.96c-3.826-1.588-8.214,0.232-9.799,4.059c-1.585,3.827,0.232,8.214,4.059,9.799l7.132,2.954
		c-4.555,13.095-7.038,27.152-7.038,41.779c0,16.569,13.432,30,30,30h150L196.002,127.503z"/>
	<path style="fill:#302C4C;" d="M447.655,72.971c-1.585-3.827-5.973-5.644-9.799-4.059l-7.146,2.96
		c-5.147-10.57-11.715-20.323-19.451-29.018l5.506-5.506c2.929-2.93,2.929-7.678,0-10.607c-2.929-2.928-7.678-2.928-10.606,0
		l-5.507,5.507c-8.695-7.735-18.448-14.304-29.018-19.451l1.004-2.423c1.585-3.827-0.232-8.214-4.059-9.799
		c-3.829-1.589-8.215,0.232-9.799,4.059l-0.998,2.408c-13.095-4.555-27.152-7.038-41.779-7.038c-4.142,0-7.5,3.357-7.5,7.5
		s3.358,7.5,7.5,7.5c62.033,0,112.5,50.468,112.5,112.5h-15l-30,30h30c16.568,0,30-13.431,30-30c0-14.627-2.484-28.684-7.038-41.779
		l7.132-2.954C447.422,81.185,449.24,76.798,447.655,72.971z"/>
	<path style="fill:#5B3364;" d="M413.502,127.503h-97.5l-52.5,30h120C400.07,157.503,413.502,144.072,413.502,127.503z"/>
	<path style="fill:#302C4C;" d="M361.002,202.503v-30h-60l-45,272c66.274,0,120-53.726,120-120v-107
		C376.002,209.253,369.252,202.503,361.002,202.503z"/>
	<path style="fill:#5B3364;" d="M346.002,324.503v-107c0-8.25-6.75-15-15-15v-30h-135l60,272
		C305.708,444.503,346.002,390.777,346.002,324.503z"/>
	<path style="fill:#504B83;" d="M151.002,202.503c-8.25,0-15,6.75-15,15v107c0,66.274,53.726,120,120,120v-272h-105V202.503z"/>
	<path style="fill:#504B83;" d="M316.002,127.503h-30l45,75h30c8.25,0,15-6.75,15-15
		C376.002,154.503,349.002,127.503,316.002,127.503z"/>
	<path style="fill:#4663A2;" d="M346.002,187.503c0-33-27-60-60-60h-90c-33,0-60,27-60,60c0,8.25,6.75,15,15,15h75
		c16.5,0,30,13.5,30,30c0-16.5,13.5-30,30-30h45C339.252,202.503,346.002,195.753,346.002,187.503z"/>
</g>
<g>
</g>
<g>
</g>
<g>
</g>
<g>
</g>
<g>
</g>
<g>
</g>
<g>
</g>
<g>
</g>
<g>
</g>
<g>
</g>
<g>
</g>
<g>
</g>
<g>
</g>
<g>
</g>
<g>
</g>
</svg>
