<?xml version="1.0" encoding="iso-8859-1"?>
<!-- Generator: Adobe Illustrator 24.1.1, SVG Export Plug-In . SVG Version: 6.00 Build 0)  -->
<svg version="1.1" id="Capa_1" xmlns="http://www.w3.org/2000/svg" xmlns:xlink="http://www.w3.org/1999/xlink" x="0px" y="0px"
	 viewBox="0 0 497 497" style="enable-background:new 0 0 497 497;" xml:space="preserve">
<g>
	<path style="fill:#FF5F21;" d="M424.107,60l9.697-9.697c2.929-2.93,2.929-7.678,0-10.607c-2.93-2.928-7.678-2.928-10.607,0
		L410.393,52.5H348.5v15h61.892l12.804,12.804c2.93,2.928,7.678,2.928,10.607,0c2.929-2.93,2.929-7.678,0-10.607L424.107,60z"/>
	<path style="fill:#70AE3E;" d="M452,227h-30v150l30-60c24.853,0,45-20.147,45-45S476.853,227,452,227z"/>
	<path style="fill:#9DCB3B;" d="M72.84,227H45c-24.853,0-45,20.147-45,45s20.147,45,45,45l203.5,60V272L72.84,227z"/>
	<path style="fill:#70AE3E;" d="M72.84,227c27.41,70.237,95.721,120,175.66,120V227H72.84z"/>
	<path style="fill:#FFF066;" d="M248.5,90V30l-60,30c-32.814,12.158-56.2,43.744-56.2,80.8v116.111l112.674-30
		C208.781,225.076,180,195.149,180,158.5C180,120.668,210.668,90,248.5,90z"/>
	<path style="fill:#70AE3E;" d="M308.5,0h-30l29.947,90H338.5c16.569,0,30-13.431,30-30C368.5,26.863,341.637,0,308.5,0z"/>
	<path style="fill:#9DCB3B;" d="M422,227H248.5c-1.183,0-2.358-0.03-3.526-0.089c-45.97-1.852-82.674-39.686-82.674-86.111
		c0-37.056,23.385-68.642,56.2-80.827c0,16.595,13.431,30.027,30,30.027h59.947c16.567,0,30.087-13.557,30.053-30.125
		C338.433,26.795,311.595,0,278.5,0h-30C160.963,0,90,70.962,90,158.5S160.963,317,248.5,317l86.75,60L422,317
		c24.853,0,45-20.147,45-45S446.853,227,422,227z"/>
	<path style="fill:#FFF066;" d="M422,452v45h30c24.853,0,45-20.147,45-45H422z"/>
	<path style="fill:#70AE3E;" d="M497,452c0-24.853-20.147-45-45-45l-60-60l30,120h60C490.284,467,497,460.284,497,452z"/>
	<path style="fill:#FFFACC;" d="M0,452c0,24.853,20.147,45,45,45h377c19.592,0,36.251-12.524,42.429-30v-15H0z"/>
	<path style="fill:#9DCB3B;" d="M422,407l-188.5-60L45,407c-24.853,0-45,20.147-45,45c0,8.284,6.716,15,15,15h449.429
		c1.659-4.693,2.571-9.739,2.571-15C467,427.147,446.853,407,422,407z"/>
	<path style="fill:#FFF066;" d="M422,362v45h30c24.853,0,45-20.147,45-45H422z"/>
	<path style="fill:#9DCB3B;" d="M497,362c0-24.853-20.147-45-45-45h-30v60h60C490.284,377,497,370.284,497,362z"/>
	<path style="fill:#FFFACC;" d="M0,362c0,24.853,20.147,45,45,45h377c19.592,0,36.251-12.524,42.429-30v-15H0z"/>
	<path style="fill:#CEDE51;" d="M422,317H45c-24.853,0-45,20.147-45,45c0,8.284,6.716,15,15,15h449.429
		c1.659-4.693,2.571-9.739,2.571-15C467,337.147,446.853,317,422,317z"/>
	<circle style="fill:#FFF066;" cx="263.5" cy="45" r="15"/>
	<circle style="fill:#70AE3E;" cx="437" cy="287" r="7.5"/>
	<circle style="fill:#70AE3E;" cx="407" cy="257" r="7.5"/>
	<circle style="fill:#70AE3E;" cx="407" cy="437" r="7.5"/>
	<circle style="fill:#9DCB3B;" cx="45" cy="347" r="7.5"/>
	<path style="fill:#5B9B40;" d="M338.5,67.5c-4.143,0-7.5-3.357-7.5-7.5c0-3.947-1.042-7.836-3.015-11.243
		c-2.075-3.585-0.851-8.173,2.734-10.248c3.584-2.073,8.172-0.852,10.248,2.734C344.26,46.932,346,53.417,346,60
		C346,64.143,342.643,67.5,338.5,67.5z"/>
</g>
<g>
</g>
<g>
</g>
<g>
</g>
<g>
</g>
<g>
</g>
<g>
</g>
<g>
</g>
<g>
</g>
<g>
</g>
<g>
</g>
<g>
</g>
<g>
</g>
<g>
</g>
<g>
</g>
<g>
</g>
</svg>
