<?xml version="1.0" encoding="iso-8859-1"?>
<!-- Generator: Adobe Illustrator 24.1.1, SVG Export Plug-In . SVG Version: 6.00 Build 0)  -->
<svg version="1.1" id="Capa_1" xmlns="http://www.w3.org/2000/svg" xmlns:xlink="http://www.w3.org/1999/xlink" x="0px" y="0px"
	 viewBox="0 0 497 497" style="enable-background:new 0 0 497 497;" xml:space="preserve">
<g>
	<path style="fill:#5B9B40;" d="M45,195c-24.853,0-45,20.147-45,45v122c0,33.137,26.863,60,60,60h45l143.5-60V195H45z"/>
	<path style="fill:#468943;" d="M452,195H248.5v167L392,422h45c33.137,0,60-26.863,60-60V240C497,215.147,476.853,195,452,195z"/>
	<polygon style="fill:#70AE3E;" points="45,120 45,225 155,362 155,120 	"/>
	<polygon style="fill:#70AE3E;" points="452,120 452,225 342,362 342,120 	"/>
	<path style="fill:#9DCB3B;" d="M392,285l-60,107h60c33.137,0,60-40.294,60-90v-77C418.863,225,392,251.863,392,285z"/>
	<rect x="302" y="120" style="fill:#FFF066;" width="90" height="281.137"/>
	<path style="fill:#9DCB3B;" d="M45,225v77c0,49.706,26.863,90,60,90h60l-60-107C105,251.863,78.137,225,45,225z"/>
	<polygon style="fill:#FFFACC;" points="105,120 105,392 203.5,422 293.5,422 362,401.137 362,120 	"/>
	<path style="fill:#FFFACC;" d="M392,123.743c0.206,0.075,0.417,0.131,0.622,0.196C392.415,123.874,392.206,123.806,392,123.743z"/>
	<path style="fill:#70AE3E;" d="M173.5,362H105c-33.137,0-60-26.863-60-60v60c0,33.137,26.863,60,60,60h23.5c8.284,0,15,6.716,15,15
		v45h30v-60h30v60h30v-60C233.5,388.863,206.637,362,173.5,362z"/>
	<circle style="fill:#9DCB3B;" cx="218.5" cy="482" r="15"/>
	<circle style="fill:#9DCB3B;" cx="158.5" cy="482" r="15"/>
	<path style="fill:#5B9B40;" d="M422,353.953L368.5,422H392c33.137,0,60-26.863,60-60v-60C452,324.205,439.929,343.578,422,353.953z
		"/>
	<path style="fill:#70AE3E;" d="M392,362h-68.5c-33.137,0-60,26.863-60,60v60c0,7.855,6.207,14.614,14.275,14.983
		c8.614,0.395,15.725-6.281,15.725-14.572V422h30v60h30v-45c0-8.284,6.716-15,15-15c29.547,0,53.5-26.863,53.5-60v-8.047
		C413.173,359.062,402.933,362,392,362z"/>
	<circle style="fill:#9DCB3B;" cx="338.5" cy="482" r="15"/>
	<circle style="fill:#9DCB3B;" cx="278.5" cy="482" r="15"/>
	<path style="fill:#FFF066;" d="M422,75l-90,135h30c49.706,0,90-40.294,90-90V75H422z"/>
	<path style="fill:#FFFFFF;" d="M422,120V75H45v45c0,49.706,40.294,90,90,90h197C381.706,210,422,169.706,422,120z"/>
	<path style="fill:#5B9B40;" d="M377,0v150c41.421,0,75-33.579,75-75S418.421,0,377,0z"/>
	<path style="fill:#70AE3E;" d="M422,75c0-41.421-20.147-75-45-75c-30.752,0-57.167,18.516-68.741,45H188.741
		C177.167,18.516,150.752,0,120,0C78.579,0,45,33.579,45,75s33.579,75,75,75h257C401.853,150,422,116.421,422,75z"/>
	<path style="fill:#FFC938;" d="M392,75c0-24.853-6.716-45-15-45c-24.853,0-45,20.147-45,45s20.147,45,45,45
		C385.284,120,392,99.853,392,75z"/>
	<path style="fill:#FFA630;" d="M377,30v90c24.853,0,45-20.147,45-45S401.853,30,377,30z"/>
	<path style="fill:#FFC938;" d="M135,75c0-24.853-6.716-45-15-45c-24.853,0-45,20.147-45,45s20.147,45,45,45
		C128.284,120,135,99.853,135,75z"/>
	<path style="fill:#FFA630;" d="M120,30v90c24.853,0,45-20.147,45-45S144.853,30,120,30z"/>
	<path style="fill:#5B9B40;" d="M208.5,127.5c-4.143,0-7.5-3.357-7.5-7.5c0-3.947-1.043-7.835-3.015-11.243
		c-2.075-3.586-0.851-8.174,2.734-10.248c3.586-2.074,8.174-0.852,10.248,2.734C214.26,106.933,216,113.418,216,120
		C216,124.143,212.643,127.5,208.5,127.5z"/>
	<path style="fill:#5B9B40;" d="M288.5,127.5c-4.143,0-7.5-3.357-7.5-7.5c0-6.582,1.74-13.067,5.032-18.757
		c2.075-3.584,6.663-4.808,10.248-2.734c3.585,2.074,4.81,6.662,2.734,10.248C297.043,112.165,296,116.053,296,120
		C296,124.143,292.643,127.5,288.5,127.5z"/>
	<path style="fill:#504B83;" d="M120,97.5c-4.143,0-7.5-3.357-7.5-7.5V60c0-4.143,3.357-7.5,7.5-7.5s7.5,3.357,7.5,7.5v30
		C127.5,94.143,124.143,97.5,120,97.5z"/>
	<path style="fill:#504B83;" d="M377,97.5c-4.143,0-7.5-3.357-7.5-7.5V60c0-4.143,3.357-7.5,7.5-7.5s7.5,3.357,7.5,7.5v30
		C384.5,94.143,381.143,97.5,377,97.5z"/>
</g>
<g>
</g>
<g>
</g>
<g>
</g>
<g>
</g>
<g>
</g>
<g>
</g>
<g>
</g>
<g>
</g>
<g>
</g>
<g>
</g>
<g>
</g>
<g>
</g>
<g>
</g>
<g>
</g>
<g>
</g>
</svg>
