<?xml version="1.0" encoding="iso-8859-1"?>
<!-- Generator: Adobe Illustrator 24.1.1, SVG Export Plug-In . SVG Version: 6.00 Build 0)  -->
<svg version="1.1" id="Capa_1" xmlns="http://www.w3.org/2000/svg" xmlns:xlink="http://www.w3.org/1999/xlink" x="0px" y="0px"
	 viewBox="0 0 497 497" style="enable-background:new 0 0 497 497;" xml:space="preserve">
<g>
	<rect x="143.5" y="45" style="fill:#FFBB90;" width="55" height="310.285"/>
	<path style="fill:#FF9B73;" d="M158.5,60c16.569,0,30,13.431,30,30h10V45c0-16.569-13.431-30-30-30h-25v30
		C143.5,53.284,150.216,60,158.5,60z"/>
	<path style="fill:#FFFACC;" d="M218.5,60c0-33.137-26.863-60-60-60c-8.284,0-15,6.716-15,15s6.716,15,15,15
		c16.569,0,30,13.431,30,30v119.539h15l15-9.49V60z"/>
	<path style="fill:#FFDBAE;" d="M188.5,179.539v175.746h30V170.05C208.189,172.159,198.129,175.341,188.5,179.539z"/>
	<rect x="298.5" y="45" style="fill:#FFBB90;" width="55" height="310.285"/>
	<path style="fill:#FF9B73;" d="M338.5,60c-16.569,0-30,13.431-30,30h-10V45c0-16.569,13.431-30,30-30h25v30
		C353.5,53.284,346.784,60,338.5,60z"/>
	<path style="fill:#FFFACC;" d="M278.5,60c0-33.137,26.863-60,60-60c8.284,0,15,6.716,15,15s-6.716,15-15,15
		c-16.569,0-30,13.431-30,30v119.539h-15l-15-9.49V60z"/>
	<path style="fill:#FFDBAE;" d="M308.5,179.539v175.746h-30V170.05C288.811,172.159,298.871,175.341,308.5,179.539z"/>
	<path style="fill:#FFDBAE;" d="M375.999,341.022l-9.97-48.359C354.781,238.058,306.436,197,248.5,197l60,300h30
		c45.563,0,82.5-36.937,82.5-82.5C421,382.445,402.705,354.68,375.999,341.022z"/>
	<path style="fill:#FFFACC;" d="M391,414.5c0-19.807-10.982-37.727-28.66-46.768c-8.102-4.144-13.886-11.74-15.723-20.652
		l-11.206-54.417C327.093,238.058,291.343,197,248.5,197c-57.936,0-106.28,41.058-117.529,95.664l-9.97,48.359
		C94.295,354.68,76,382.445,76,414.5c0,45.563,36.937,82.5,82.5,82.5h150C354.063,497,391,460.063,391,414.5z"/>
	<path style="fill:#FFDBAE;" d="M248.5,437c0,16.569-13.431,30-30,30c0,16.569,13.432,30,30,30s30-13.431,30-30
		C261.931,467,248.5,453.569,248.5,437z"/>
	<path style="fill:#4663A2;" d="M181,392v-45c0-8.284-6.716-15-15-15s-15,6.716-15,15v45c0,8.284,6.716,15,15,15
		S181,400.284,181,392z"/>
	<path style="fill:#4663A2;" d="M346,392v-45c0-8.284-6.716-15-15-15s-15,6.716-15,15v45c0,8.284,6.716,15,15,15
		S346,400.284,346,392z"/>
	<path style="fill:#FFBB90;" d="M278.5,459.5c-12.406,0-22.5-10.094-22.5-22.5v-25h-15v25c0,12.406-10.094,22.5-22.5,22.5
		c-4.143,0-7.5,3.357-7.5,7.5s3.357,7.5,7.5,7.5c12.253,0,23.152-5.907,30-15.023c6.848,9.116,17.747,15.023,30,15.023
		c4.143,0,7.5-3.357,7.5-7.5S282.643,459.5,278.5,459.5z"/>
	<path style="fill:#FFDBAE;" d="M218.5,279.5c-4.143,0-7.5-3.357-7.5-7.5v-15c0-4.143,3.357-7.5,7.5-7.5s7.5,3.357,7.5,7.5v15
		C226,276.143,222.643,279.5,218.5,279.5z"/>
	<path style="fill:#FFDBAE;" d="M248.5,324.5c-4.143,0-7.5-3.357-7.5-7.5v-15c0-4.143,3.357-7.5,7.5-7.5s7.5,3.357,7.5,7.5v15
		C256,321.143,252.643,324.5,248.5,324.5z"/>
	<path style="fill:#FFDBAE;" d="M278.5,279.5c-4.143,0-7.5-3.357-7.5-7.5v-15c0-4.143,3.357-7.5,7.5-7.5s7.5,3.357,7.5,7.5v15
		C286,276.143,282.643,279.5,278.5,279.5z"/>
	<path style="fill:#FF9B73;" d="M263.5,392h-30c-8.284,0-15,6.716-15,15l22.495,12.974c2.209,1.281,4.767,2.026,7.505,2.026
		s5.296-0.745,7.505-2.026L278.5,407C278.5,398.716,271.784,392,263.5,392z"/>
</g>
<g>
</g>
<g>
</g>
<g>
</g>
<g>
</g>
<g>
</g>
<g>
</g>
<g>
</g>
<g>
</g>
<g>
</g>
<g>
</g>
<g>
</g>
<g>
</g>
<g>
</g>
<g>
</g>
<g>
</g>
</svg>
