<?xml version="1.0" encoding="iso-8859-1"?>
<!-- Generator: Adobe Illustrator 24.1.1, SVG Export Plug-In . SVG Version: 6.00 Build 0)  -->
<svg version="1.1" id="Capa_1" xmlns="http://www.w3.org/2000/svg" xmlns:xlink="http://www.w3.org/1999/xlink" x="0px" y="0px"
	 viewBox="0 0 497 497" style="enable-background:new 0 0 497 497;" xml:space="preserve">
<g>
	<path style="fill:#A94525;" d="M263.5,251.5H256v-15h7.5c12.406,0,22.5-10.094,22.5-22.5v-7.5h15v7.5
		C301,234.678,284.178,251.5,263.5,251.5z"/>
	<path style="fill:#D45223;" d="M241,251.5h-7.5c-20.678,0-37.5-16.822-37.5-37.5v-7.5h15v7.5c0,12.406,10.094,22.5,22.5,22.5h7.5
		V251.5z"/>
	<path style="fill:#FF7B55;" d="M377,150v142.152h60V150c0-16.569-13.431-30-30-30S377,133.431,377,150z"/>
	<path style="fill:#FF9B73;" d="M407,90v172.152h60V90c0-16.569-13.431-30-30-30S407,73.431,407,90z"/>
	<path style="fill:#FF9B73;" d="M467.559,30.005c-5.704-0.104-11.052,1.386-15.631,4.052v259.464L320.269,428.494l50,68.506h21.382
		c4.798,0,8.362-4.443,7.321-9.127L391,452l95.717-141.673c6.702-9.92,10.283-21.618,10.283-33.59V60.643
		C497,44.184,484.015,30.304,467.559,30.005z"/>
	<path style="fill:#FFBB90;" d="M366.142,435.193l95.717-141.673c3.363-4.979,5.142-10.786,5.142-16.794V60.613
		c0-11.204-6.022-21.219-15.072-26.556C443.001,39.254,437,48.926,437,60v196.934h-60L263.5,453.867V489.5
		c0,4.142,3.358,7.5,7.5,7.5h99.269l-8.555-38.506C359.927,450.449,361.528,442.023,366.142,435.193z"/>
	<path style="fill:#FFDBAE;" d="M428.213,235.721c-11.716-11.716-30.711-11.716-42.427,0L281.074,340.434
		c-10.858,10.858-17.573,25.858-17.573,42.427l0,71.007c33.135,0,59.997-26.86,60-59.995v-11.011l104.714-104.714
		C439.929,266.431,439.929,247.436,428.213,235.721z"/>
	<path style="fill:#FF7B55;" d="M90,120c-16.569,0-30,13.431-30,30v172.152h60V150C120,133.431,106.569,120,90,120z"/>
	<path style="fill:#FF9B73;" d="M60,60c-16.569,0-30,13.431-30,30v172.152h60V90C90,73.431,76.569,60,60,60z"/>
	<path style="fill:#FF9B73;" d="M183.5,391.814L203.5,497H226c4.142,0,7.5-3.358,7.5-7.5v-35.633L183.5,391.814z"/>
	<path style="fill:#FFBB90;" d="M120,256.934H60V60c0-16.849-13.889-30.453-30.843-29.989C12.817,30.46,0,44.277,0,60.624l0,216.114
		c0,11.972,3.581,23.67,10.283,33.59L106,452l-7.972,35.873c-1.041,4.684,2.523,9.127,7.321,9.127h98.15v-95.186L120,256.934z"/>
	<path style="fill:#FFBB90;" d="M215.927,340.434L111.213,235.721l92.287,210.1c8.827,5.108,19.067,8.047,30,8.047V382.86
		C233.5,366.292,226.784,351.292,215.927,340.434z"/>
	<path style="fill:#FFDBAE;" d="M190.238,340.434l-79.025-104.713c-11.716-11.716-30.711-11.716-42.427,0
		c-11.716,11.716-11.716,30.711,0,42.427L173.5,382.86v11.011c0.002,22.202,12.073,41.573,30,51.948v-62.96
		C203.5,366.292,198.432,351.292,190.238,340.434z"/>
	<polygon style="fill:#A94525;" points="233.5,184 233.5,251.5 248.5,264 263.5,251.5 263.5,184 	"/>
	<path style="fill:#D45223;" d="M241,274h15c4.142,0,7.5-3.358,7.5-7.5v-15h-30v15C233.5,270.642,236.858,274,241,274z"/>
	<path style="fill:#468943;" d="M328.192,168.5h0.308c8.284,0,15-6.716,15-15c0-2.732-0.742-5.286-2.018-7.492l-80-138.5
		C258.889,3.024,254.052,0,248.5,0c-5.552,0-10.388,3.024-12.982,7.508l-2.018,3.494L298.5,214h30c8.284,0,15-6.716,15-15
		c0-2.732-0.742-5.286-2.018-7.492L328.192,168.5z"/>
	<path style="fill:#5B9B40;" d="M298.192,168.5h0.308c8.284,0,15-6.716,15-15c0-2.732-0.742-5.286-2.018-7.492L233.5,11.002
		l-77.982,135.006c-1.276,2.206-2.018,4.76-2.018,7.492c0,8.284,6.716,15,15,15h0.308l-13.29,23.008
		c-1.276,2.206-2.018,4.76-2.018,7.492c0,8.284,6.716,15,15,15h130c8.284,0,15-6.716,15-15c0-2.732-0.742-5.286-2.018-7.492
		L298.192,168.5z"/>
</g>
<g>
</g>
<g>
</g>
<g>
</g>
<g>
</g>
<g>
</g>
<g>
</g>
<g>
</g>
<g>
</g>
<g>
</g>
<g>
</g>
<g>
</g>
<g>
</g>
<g>
</g>
<g>
</g>
<g>
</g>
</svg>
